<svg class="main-svg" xmlns="http://www.w3.org/2000/svg" xmlns:xlink="http://www.w3.org/1999/xlink" width="700" height="500" style="" viewBox="0 0 700 500"><rect x="0" y="0" width="700" height="500" style="fill: rgb(255, 255, 255); fill-opacity: 1;"/><defs id="defs-083ed5"><g class="clips"><clipPath id="clip083ed5xyplot" class="plotclip"><rect width="485.03999999999996" height="320"/></clipPath><clipPath id="clip083ed5xy2plot" class="plotclip"><rect width="485.03999999999996" height="320"/></clipPath><clipPath class="axesclip" id="clip083ed5x"><rect x="80" y="0" width="485.03999999999996" height="500"/></clipPath><clipPath class="axesclip" id="clip083ed5y"><rect x="0" y="100" width="700" height="320"/></clipPath><clipPath class="axesclip" id="clip083ed5xy"><rect x="80" y="100" width="485.03999999999996" height="320"/></clipPath><clipPath class="axesclip" id="clip083ed5y2"><rect x="0" y="100" width="700" height="320"/></clipPath><clipPath class="axesclip" id="clip083ed5xy2"><rect x="80" y="100" width="485.03999999999996" height="320"/></clipPath></g><g class="gradients"/><g class="patterns"/></defs><g class="bglayer"><rect class="bg" x="80" y="100" width="485.03999999999996" height="320" style="fill: rgb(229, 236, 246); fill-opacity: 1; stroke-width: 0;"/></g><g class="layer-below"><g class="imagelayer"/><g class="shapelayer"/></g><g class="cartesianlayer"><g class="subplot xy"><g class="layer-subplot"><g class="shapelayer"/><g class="imagelayer"/></g><g class="minor-gridlayer"><g class="x"/><g class="y"/><g class="y2"/></g><g class="gridlayer"><g class="x"><path class="xgrid crisp" transform="translate(200.59,0)" d="M0,100v320" style="stroke: rgb(255, 255, 255); stroke-opacity: 1; stroke-width: 1px;"/><path class="xgrid crisp" transform="translate(323.19,0)" d="M0,100v320" style="stroke: rgb(255, 255, 255); stroke-opacity: 1; stroke-width: 1px;"/><path class="xgrid crisp" transform="translate(443.78,0)" d="M0,100v320" style="stroke: rgb(255, 255, 255); stroke-opacity: 1; stroke-width: 1px;"/></g><g class="y"><path class="ygrid crisp" transform="translate(0,374.67)" d="M80,0h485.03999999999996" style="stroke: rgb(255, 255, 255); stroke-opacity: 1; stroke-width: 1px;"/><path class="ygrid crisp" transform="translate(0,329.98)" d="M80,0h485.03999999999996" style="stroke: rgb(255, 255, 255); stroke-opacity: 1; stroke-width: 1px;"/><path class="ygrid crisp" transform="translate(0,285.28999999999996)" d="M80,0h485.03999999999996" style="stroke: rgb(255, 255, 255); stroke-opacity: 1; stroke-width: 1px;"/><path class="ygrid crisp" transform="translate(0,240.6)" d="M80,0h485.03999999999996" style="stroke: rgb(255, 255, 255); stroke-opacity: 1; stroke-width: 1px;"/><path class="ygrid crisp" transform="translate(0,195.92000000000002)" d="M80,0h485.03999999999996" style="stroke: rgb(255, 255, 255); stroke-opacity: 1; stroke-width: 1px;"/><path class="ygrid crisp" transform="translate(0,151.23)" d="M80,0h485.03999999999996" style="stroke: rgb(255, 255, 255); stroke-opacity: 1; stroke-width: 1px;"/><path class="ygrid crisp" transform="translate(0,106.54)" d="M80,0h485.03999999999996" style="stroke: rgb(255, 255, 255); stroke-opacity: 1; stroke-width: 1px;"/></g><g class="y2"/></g><g class="zerolinelayer"><path class="y2zl zl crisp" transform="translate(0,287.45)" d="M80,0h485.03999999999996" style="stroke: rgb(255, 255, 255); stroke-opacity: 1; stroke-width: 2px;"/></g><path class="xlines-below"/><path class="ylines-below"/><g class="overlines-below"><path class="xy2-x"/><path class="xy2-y"/></g><g class="xaxislayer-below"/><g class="yaxislayer-below"/><g class="overaxes-below"><g class="xy2-x"/><g class="xy2-y"/></g><g class="plot" transform="translate(80,100)" clip-path="url(#clip083ed5xyplot)"><g class="scatterlayer mlayer"><g class="trace scatter trace62c3a7" style="stroke-miterlimit: 2; opacity: 1;"><g class="fills"/><g class="errorbars"/><g class="lines"><path class="js-line" d="M0,229.98L4.66,227.31L9.33,225.56L13.99,234.43L18.66,248.49L23.32,253.71L27.98,233.26L32.65,229.34L37.31,228.43L41.97,223.62L46.64,226.12L51.3,242.82L55.97,239.2L60.63,238.43L65.29,230.32L69.96,241.83L74.62,246.17L79.29,218.7L83.95,212.63L88.61,215.54L93.28,212.64L102.6,208.66L107.27,212.31L111.93,217.31L116.6,217.07L125.92,209.13L130.59,208.99L135.25,209.58L139.92,187.86L144.58,188.44L149.24,175.61L153.91,177.43L158.57,162.78L163.23,170.86L167.9,167.62L172.56,175.51L177.23,165.19L181.89,167.05L186.55,169.83L195.88,177.25L200.55,188.51L205.21,192.35L209.87,206.32L214.54,233.44L219.2,225.41L223.86,238.29L228.53,242.13L233.19,260.97L237.86,253.94L242.52,264.12L247.18,258.97L251.85,253.19L256.51,251.99L261.18,240.81L265.84,235.84L270.5,235.83L275.17,232.57L279.83,230.02L284.49,232.65L289.16,215.78L293.82,209.49L298.49,210.89L303.15,201.89L307.81,199.5L312.48,193.13L317.14,192.57L321.81,183.06L326.47,201.66L331.13,212.1L335.8,224.91L340.46,229.89L345.12,210.64L349.79,207.33L354.45,199.62L359.12,200.71L363.78,192.66L368.44,193.85L373.11,194.75L377.77,188.18L387.1,196.8L391.76,189.76L396.43,194.69L401.09,186.9L405.75,181.13L410.42,174.12L415.08,175.42L419.75,174.03L429.07,151.83L433.74,151.57L443.07,126.79L447.73,121.27L452.39,114.1L457.06,119.18L461.72,112.2L466.38,107.78L475.71,96.63L480.38,83.4L485.04,78.49" style="vector-effect: none; fill: none; stroke: rgb(170, 13, 254); stroke-opacity: 1; stroke-width: 2px; opacity: 1;"/></g><g class="points"/><g class="text"/></g><g class="trace scatter trace52e322" style="stroke-miterlimit: 2; opacity: 1;"><g class="fills"/><g class="errorbars"/><g class="lines"><path class="js-line" d="M0,229.98L4.66,216.15L9.33,218.08L13.99,198.55L18.66,193.47L23.32,209.9L27.98,190.07L32.65,180.74L37.31,180.7L41.97,166.4L46.64,167.71L51.3,181.55L55.97,190.31L60.63,197.97L65.29,193.32L69.96,175.74L74.62,167.54L79.29,166.03L83.95,162.03L88.61,167.22L93.28,160.72L97.94,155.01L102.6,147.29L107.27,141.48L111.93,141.54L116.6,144.42L121.26,142.45L125.92,123.84L130.59,123.72L139.92,121.97L144.58,110.52L149.24,111.26L153.91,107.05L158.57,87.54L163.23,98.56L167.9,95.27L172.56,105.3L177.23,89.3L181.89,109.91L186.55,128.28L191.22,132.74L195.88,154.78L200.55,150.65L205.21,142.12L209.87,163.76L214.54,180.37L219.2,146.17L223.86,157.27L228.53,164.03L233.19,203.02L237.86,184.74L242.52,167.04L247.18,155.19L251.85,145.07L256.51,149.73L265.84,164.7L270.5,161.12L275.17,156.83L279.83,149.52L284.49,158.78L289.16,142.14L293.82,132.61L298.49,129.7L303.15,119.43L307.81,118.38L312.48,114.99L317.14,98.82L321.81,96.67L326.47,109.85L331.13,113.66L335.8,121.97L340.46,130.74L345.12,125.47L349.79,113.54L354.45,105.97L359.12,109.19L363.78,100.23L368.44,87.85L373.11,96.3L377.77,100.2L382.44,121.98L391.76,127.56L396.43,135.36L401.09,130.52L405.75,120.11L410.42,119.05L415.08,127.27L419.75,139.76L424.41,137.18L429.07,138.58L433.74,133.93L438.4,133.24L443.07,127.76L447.73,128.77L452.39,137.21L457.06,136.07L461.72,126.06L466.38,135L471.05,133.31L475.71,128.66L480.38,113.52L485.04,117.51" style="vector-effect: none; fill: none; stroke: rgb(50, 131, 254); stroke-opacity: 1; stroke-width: 2px; opacity: 1;"/></g><g class="points"/><g class="text"/></g><g class="trace scatter tracec4c249" style="stroke-miterlimit: 2; opacity: 1;"><g class="fills"/><g class="errorbars"/><g class="lines"><path class="js-line" d="M0,229.98L4.66,238.92L9.33,236.63L13.99,226.21L18.66,225.88L23.32,242.82L27.98,241.33L32.65,234.24L37.31,242.21L41.97,231.92L46.64,232.08L51.3,262.82L55.97,262.34L60.63,265.43L65.29,256.68L69.96,254.58L74.62,245.84L79.29,242.22L83.95,229.81L88.61,234.97L93.28,232.29L97.94,221.44L102.6,227.29L111.93,212.17L116.6,221.05L121.26,210.39L125.92,205.5L130.59,202.37L135.25,244.28L144.58,237.86L149.24,245.58L158.57,243.28L163.23,258.45L167.9,259.31L172.56,258.58L177.23,256.75L181.89,265.28L186.55,269.57L191.22,269.2L195.88,279.58L200.55,273.63L209.87,286.56L214.54,295.89L219.2,285.27L223.86,289.09L228.53,281.15L233.19,304L237.86,294.13L242.52,288.45L251.85,274L256.51,275.23L261.18,255.26L265.84,253.32L270.5,259.1L275.17,259.83L279.83,259.36L284.49,250.61L289.16,254.94L293.82,256.9L298.49,254.09L303.15,243.29L307.81,239.25L312.48,240.23L317.14,224.43L321.81,219.67L326.47,228.2L331.13,231.83L345.12,246.12L349.79,236.58L354.45,224.85L359.12,222.62L363.78,218.56L368.44,208.43L373.11,216.22L377.77,214.55L382.44,227.38L387.1,228.78L391.76,233.75L396.43,240.86L401.09,231.39L405.75,229.21L410.42,229.57L415.08,226.3L419.75,241.64L424.41,237.63L429.07,233.16L433.74,231.17L438.4,228.74L443.07,221.88L447.73,225.21L452.39,220.11L457.06,215.67L461.72,212.29L466.38,213L471.05,221.3L475.71,206.72L480.38,204.57L485.04,207.98" style="vector-effect: none; fill: none; stroke: rgb(133, 102, 13); stroke-opacity: 1; stroke-width: 2px; opacity: 1;"/></g><g class="points"/><g class="text"/></g><g class="trace scatter trace5d8278" style="stroke-miterlimit: 2; opacity: 1;"><g class="fills"/><g class="errorbars"/><g class="lines"><path class="js-line" d="M0,229.98L9.33,222.83L13.99,215.06L23.32,243.04L27.98,231.49L32.65,225L37.31,234.7L41.97,218.26L46.64,223.19L51.3,246.33L55.97,244.26L60.63,249.28L65.29,244.77L69.96,235.91L74.62,244.61L79.29,240.93L83.95,230.78L88.61,237.25L93.28,235.37L97.94,226.48L102.6,226.2L107.27,219.84L111.93,219.18L116.6,227.26L121.26,222.29L125.92,212.43L130.59,213.22L135.25,202.36L139.92,205.35L144.58,202.54L149.24,209.96L153.91,205.97L158.57,206.47L163.23,217.29L167.9,215.73L172.56,217.03L177.23,211.48L181.89,218.81L186.55,228.39L191.22,231.15L195.88,236.21L200.55,238.99L205.21,237.29L209.87,238.24L214.54,245.86L219.2,231.56L223.86,243.29L228.53,242.17L233.19,254.85L237.86,243.19L242.52,236.37L247.18,239.11L251.85,230.78L256.51,232.26L261.18,228.25L265.84,231.43L270.5,227.66L275.17,228.33L279.83,222.12L284.49,221.85L289.16,213.31L293.82,209.04L298.49,215.57L303.15,208.71L307.81,206.54L312.48,202.79L317.14,195.53L321.81,213.12L326.47,217.4L331.13,217.8L335.8,223.65L340.46,229.7L345.12,237.32L349.79,233.4L354.45,226L359.12,234.3L363.78,224.03L368.44,221.33L373.11,224.33L377.77,199.94L382.44,211.38L387.1,212.59L391.76,214.7L396.43,220.03L401.09,212.57L405.75,209.16L410.42,202.14L415.08,204.09L419.75,205.07L424.41,208.34L429.07,207.03L433.74,200.94L438.4,196.96L443.07,195.21L447.73,187.58L452.39,182.82L457.06,190.83L461.72,188.88L466.38,181.65L471.05,180.19L475.71,179.84L480.38,179.37L485.04,182.38" style="vector-effect: none; fill: none; stroke: rgb(120, 42, 182); stroke-opacity: 1; stroke-width: 2px; opacity: 1;"/></g><g class="points"/><g class="text"/></g><g class="trace scatter traceaebec3" style="stroke-miterlimit: 2; opacity: 1;"><g class="fills"/><g class="errorbars"/><g class="lines"><path class="js-line" d="M0,229.98L4.66,226.41L9.33,225.39L13.99,215.11L18.66,220.88L23.32,230L27.98,220.33L32.65,215.11L37.31,217.67L41.97,208.82L46.64,213.74L51.3,232.54L55.97,222.18L60.63,224.81L65.29,217.59L69.96,212.73L74.62,210.65L79.29,212.32L83.95,205.88L88.61,209.28L93.28,204.21L97.94,198.06L102.6,195.93L107.27,199.73L111.93,199.02L116.6,203.58L121.26,197.12L125.92,186.3L130.59,184.17L135.25,180.6L139.92,179.69L144.58,177.25L149.24,180.85L153.91,178.77L158.57,168.82L163.23,179.26L167.9,166.18L172.56,163.93L177.23,163.65L186.55,175.81L191.22,178.12L195.88,182.42L200.55,184.45L205.21,175.81L209.87,179.05L214.54,192.28L219.2,172.47L223.86,187.85L228.53,184.78L233.19,204.54L237.86,199.07L242.52,195.17L247.18,192.96L251.85,180.52L256.51,181.89L261.18,193.01L265.84,185.69L275.17,172.26L279.83,168.31L284.49,173.43L289.16,159.75L298.49,154.6L303.15,149.66L307.81,146.98L312.48,140.85L317.14,124.33L321.81,126.84L326.47,131.32L331.13,128.94L335.8,133.58L340.46,140.06L345.12,120.5L349.79,117.84L354.45,106.39L359.12,114.02L363.78,106.16L368.44,101.5L373.11,107.28L377.77,95.32L382.44,106.57L387.1,104.52L391.76,108.52L396.43,115.46L401.09,104.13L405.75,100.99L410.42,105.5L415.08,100.13L419.75,104.46L424.41,103.48L429.07,99.52L433.74,105.28L443.07,89.29L447.73,83.61L452.39,73.45L457.06,74.42L461.72,69.88L466.38,68.94L475.71,54.6L480.38,50.68L485.04,53.87" style="vector-effect: none; fill: none; stroke: rgb(86, 86, 86); stroke-opacity: 1; stroke-width: 2px; opacity: 1;"/></g><g class="points"/><g class="text"/></g><g class="trace scatter traced31dac" style="stroke-miterlimit: 2; opacity: 1;"><g class="fills"/><g class="errorbars"/><g class="lines"><path class="js-line" d="M0,229.98L4.66,218.02L9.33,218.84L13.99,161.23L18.66,168.86L23.32,187.97L27.98,157.06L32.65,149.18L37.31,133.09L41.97,100.75L46.64,114.57L51.3,133.2L55.97,139.15L60.63,146.07L65.29,121.81L69.96,104.66L74.62,121.69L79.29,112.83L83.95,106.05L88.61,108.48L93.28,79.63L97.94,70.44L102.6,69.76L107.27,36.33L111.93,16L116.6,36.92L121.26,19.02L125.92,32.27L130.59,69.24L135.25,75.46L139.92,88.35L144.58,85.4L149.24,116.35L153.91,71.62L158.57,62.19L163.23,82.41L167.9,65.51L172.56,69.1L177.23,55.33L181.89,79.57L186.55,92.11L191.22,99.44L195.88,134.39L200.55,124.52L205.21,130.51L209.87,148.88L214.54,178.02L219.2,148.96L223.86,171.3L228.53,169.49L233.19,191.25L237.86,180.94L242.52,136.79L247.18,94.21L251.85,92.6L256.51,93.72L261.18,91.8L265.84,83.59L270.5,73.69L275.17,67.15L279.83,73.21L284.49,81.43L289.16,68.81L293.82,69.29L298.49,74.02L303.15,64.52L307.81,79.79L312.48,69.99L317.14,54.56L321.81,43.73L326.47,69.26L331.13,76.27L335.8,76.33L340.46,88.15L345.12,69.44L349.79,91.93L354.45,60.56L359.12,62.57L363.78,48.5L368.44,56.26L373.11,118.14L377.77,96.13L382.44,114.17L387.1,124.7L391.76,131.23L396.43,143.31L401.09,140.85L405.75,144.66L410.42,140.43L415.08,165.33L419.75,173.49L429.07,152.37L433.74,160.49L438.4,158.87L443.07,148.24L447.73,143.17L452.39,139.49L457.06,123.05L461.72,118.61L466.38,126.38L471.05,135.8L475.71,94.94L480.38,103.25L485.04,109.12" style="vector-effect: none; fill: none; stroke: rgb(28, 131, 86); stroke-opacity: 1; stroke-width: 2px; opacity: 1;"/></g><g class="points"/><g class="text"/></g></g></g><g class="overplot"><g class="xy2" transform="translate(80,100)" clip-path="url(#clip083ed5xy2plot)"><g class="scatterlayer mlayer"><g class="trace scatter trace8ea41a" style="stroke-miterlimit: 2; opacity: 1;"><g class="fills"/><g class="errorbars"/><g class="lines"><path class="js-line" d="M4.66,179.11L9.33,182.04L13.99,214.63L18.66,232.26L23.32,205.24L27.98,115.94L32.65,175.02L37.31,184.62L41.97,172.51L46.64,195.05L51.3,238.74L55.97,175.42L60.63,184.95L65.29,161.12L69.96,223.44L74.62,201.77L79.29,94.93L83.95,169.37L88.61,195.89L93.28,178.94L97.94,181.3L102.6,182.09L107.27,197.86L111.93,201.94L116.6,186.73L121.26,176.66L125.92,174.97L130.59,187.04L135.25,189.12L139.92,125.26L144.58,188.99L149.24,153.64L153.91,192L158.57,150.4L163.23,206.86L167.9,179.43L172.56,206.72L177.23,161.53L181.89,191.93L191.22,196.25L195.88,197.03L200.55,215.91L205.21,197.57L209.87,224.8L214.54,264.07L219.2,161.96L223.86,226.89L228.53,199.92L233.19,249.67L237.86,161.97L242.52,223.06L247.18,168.47L251.85,166.68L256.51,183.26L261.18,148.68L265.84,171.14L270.5,187.4L275.17,177L279.83,179.37L284.49,195.66L289.16,134.11L293.82,168.95L298.49,191.46L303.15,161.53L307.81,180.82L312.48,169.93L317.14,185.94L321.81,161.99L326.47,235.48L331.13,216.41L335.8,224.49L340.46,202.66L345.12,127.31L349.79,177.94L354.45,165.57L359.12,190.47L363.78,165.19L368.44,190.62L373.11,189.88L377.77,169.7L382.44,199.95L387.1,197.81L391.76,168.31L396.43,200.5L401.09,166.43L405.75,172.33L410.42,169.47L415.08,190.7L419.75,183.95L424.41,161.32L429.07,159.15L433.74,186.85L438.4,157.41L443.07,161.28L447.73,175.66L452.39,172.36L457.06,197.9L461.72,172.86L466.38,178.41L471.05,175.99L475.71,176.56L480.38,161.56L485.04,178.17" style="vector-effect: none; fill: none; stroke: rgb(170, 13, 254); stroke-opacity: 0.7; stroke-width: 2px; opacity: 1;"/></g><g class="points"/><g class="text"/></g><g class="trace scatter trace4a53ab" style="stroke-miterlimit: 2; opacity: 1;"><g class="fills"/><g class="errorbars"/><g class="lines"><path class="js-line" d="M4.66,144.24L9.33,193.13L13.99,129.49L18.66,173.55L23.32,231.56L27.98,130.59L32.65,162.72L37.31,187.33L41.97,150.85L46.64,190.63L51.3,221.26L55.97,209.95L60.63,207.76L69.96,140.26L74.62,166.82L79.29,183.75L83.95,177.75L88.61,199.88L93.28,171.58L97.94,173.84L102.6,169.39L107.27,174.19L111.93,187.57L116.6,193.9L121.26,183L125.92,145.65L130.59,187.19L139.92,185.13L144.58,163.32L149.24,188.96L153.91,178.85L158.57,148.12L163.23,208.48L167.9,180.96L172.56,207L177.23,155.37L181.89,226.95L186.55,224.77L191.22,197.04L195.88,235.42L200.55,177.79L205.21,167.79L209.87,235.97L214.54,227.47L219.2,100.02L223.86,212.66L228.53,203.4L233.19,281.5L237.86,136.47L242.52,141.45L247.18,158.57L251.85,163.77L256.51,197.99L261.18,205.97L265.84,203.76L270.5,178.77L275.17,177.19L279.83,170.26L284.49,208.71L289.16,148.01L293.82,166.08L298.49,181.12L303.15,165.28L307.81,185.25L312.48,180.39L317.14,154.09L321.81,183.21L326.47,213.23L331.13,195.19L335.8,204.52L340.46,205.9L345.12,176.06L349.79,162.04L354.45,171.9L359.12,193.9L363.78,169.28L368.44,162.98L373.11,203.58L377.77,195.08L382.44,230.49L387.1,193.44L391.76,193.24L396.43,204.17L401.09,176.8L405.75,164.96L415.08,204.59L419.75,214.18L424.41,181.7L429.07,190.55L433.74,177.13L438.4,185.93L443.07,175.51L447.73,189.61L452.39,205.58L457.06,184.94L461.72,165.42L466.38,206.52L471.05,183.72L475.71,177.31L480.38,154.89L485.04,195.64" style="vector-effect: none; fill: none; stroke: rgb(50, 131, 254); stroke-opacity: 0.7; stroke-width: 2px; opacity: 1;"/></g><g class="points"/><g class="text"/></g><g class="trace scatter trace24290f" style="stroke-miterlimit: 2; opacity: 1;"><g class="fills"/><g class="errorbars"/><g class="lines"><path class="js-line" d="M4.66,215.39L9.33,179.97L13.99,153.9L18.66,186.42L23.32,239.43L27.98,182.49L32.65,164.1L37.31,212.85L41.97,153.41L46.64,187.97L51.3,284.38L55.97,185.69L60.63,198.76L65.29,154.94L69.96,179.98L74.62,156.75L79.29,175.3L83.95,146.41L88.61,203.54L97.94,153.2L102.6,205.04L107.27,162.53L111.93,166.45L116.6,213.12L121.26,155.43L125.92,173.4L130.59,178.62L135.25,304L139.92,175.91L144.58,177.71L149.24,212.46L153.91,184.03L158.57,183.13L163.23,237.86L167.9,190.53L172.56,184.82L177.23,180.89L181.89,217.71L186.55,203.38L191.22,186.04L195.88,226.78L200.55,163.53L205.21,212.47L209.87,213.6L214.54,226.47L219.2,140.38L223.86,203.28L228.53,153.71L233.19,280.05L237.86,141.35L242.52,162.55L247.18,157.84L251.85,157.15L256.51,192.24L261.18,109.2L265.84,180.62L270.5,207.6L275.17,190.07L279.83,185.76L284.49,155.95L289.16,202.35L293.82,194.34L298.49,177.46L303.15,149.63L307.81,174.02L312.48,190.64L317.14,135.72L326.47,212.91L331.13,198.71L335.8,203.42L340.46,201.29L345.12,203.65L349.79,155.31L354.45,149.68L359.12,180.65L363.78,175.15L368.44,157.34L373.11,209.63L377.77,182.55L382.44,224.95L387.1,191.77L391.76,202.87L396.43,210.06L401.09,156.34L405.75,180.6L410.42,188.56L415.08,177.23L419.75,234.6L424.41,174.24L429.07,172.98L433.74,181.15L438.4,179.78L443.07,166.15L447.73,197.47L452.39,171.86L457.06,174.13L461.72,177.54L466.38,189.49L471.05,211.54L475.71,143.6L480.38,181.35L485.04,197.01" style="vector-effect: none; fill: none; stroke: rgb(133, 102, 13); stroke-opacity: 0.7; stroke-width: 2px; opacity: 1;"/></g><g class="points"/><g class="text"/></g><g class="trace scatter tracef1b14d" style="stroke-miterlimit: 2; opacity: 1;"><g class="fills"/><g class="errorbars"/><g class="lines"><path class="js-line" d="M4.66,174.76L9.33,177.96L13.99,163.92L18.66,225.41L23.32,233.98L27.98,149.09L32.65,167.05L37.31,217.1L41.97,134.96L46.64,202.08L51.3,257.62L55.97,180.46L60.63,204.19L65.29,172.03L69.96,157.81L74.62,215.36L79.29,175.14L83.95,154.11L88.61,207.72L97.94,158.99L102.6,186.59L107.27,167.89L111.93,185.49L116.6,211.51L121.26,172.1L125.92,157.66L130.59,189.74L135.25,155.87L139.92,195.78L144.58,179.52L149.24,208.12L153.91,176L158.57,188.85L163.23,218.03L167.9,182.83L172.56,191.28L177.23,171.05L181.89,208.57L186.55,215.96L191.22,196.01L195.88,203.36L200.55,196.36L205.21,181.93L209.87,190.5L214.54,212.18L219.2,139.34L223.86,224.35L228.53,183.73L233.19,229.36L237.86,146.44L242.52,164.81L247.18,196.26L251.85,160.32L256.51,192.07L261.18,174.8L265.84,197.31L270.5,175.59L275.17,189.5L279.83,168.19L284.49,186.63L289.16,161.69L293.82,175.04L298.49,206.09L303.15,167.31L307.81,181.25L312.48,176.84L317.14,167.22L321.81,235.07L326.47,199.89L331.13,188.63L335.8,204.76L340.46,205.82L345.12,211.22L349.79,174.8L354.45,163.95L359.12,212.94L363.78,154.71L368.44,179.23L373.11,196.47L377.77,113.12L382.44,218.95L387.1,190.94L391.76,193.56L396.43,203.04L401.09,165.12L405.75,177.56L410.42,167.38L415.08,192.87L419.75,190.19L424.41,196.61L429.07,183.72L433.74,170.19L438.4,176.44L443.07,182.69L447.73,166.82L452.39,174.93L457.06,208.12L461.72,182.26L466.38,168.37L471.05,183.69L475.71,186.53L480.38,186.26L485.04,195.12" style="vector-effect: none; fill: none; stroke: rgb(120, 42, 182); stroke-opacity: 0.7; stroke-width: 2px; opacity: 1;"/></g><g class="points"/><g class="text"/></g><g class="trace scatter trace7294d6" style="stroke-miterlimit: 2; opacity: 1;"><g class="fills"/><g class="errorbars"/><g class="lines"><path class="js-line" d="M4.66,176.28L9.33,184.33L13.99,155.95L18.66,204.37L23.32,214.83L27.98,157.2L32.65,171.81L37.31,194.94L41.97,161.26L51.3,242.2L55.97,154.69L60.63,195.4L65.29,165.39L74.62,181.42L79.29,192.25L83.95,168.81L88.61,197.02L93.28,172.96L97.94,170.2L102.6,181.63L107.27,197.75L111.93,185.49L116.6,199.96L121.26,169.39L125.92,157.98L130.59,181.88L135.25,178.18L139.92,185.11L144.58,181.24L149.24,196.54L153.91,182.12L158.57,162.13L163.23,213.05L167.9,154.15L172.56,181.96L177.23,186.77L181.89,201.12L186.55,203.38L191.22,193.24L195.88,198.37L200.55,192.67L205.21,165.02L209.87,195.6L214.54,221.1L219.2,134.48L223.86,225.66L228.53,179.39L233.19,238.8L237.86,172.09L247.18,181.49L251.85,154.1L256.51,190.95L261.18,216.04L265.84,167.81L270.5,170.6L275.17,169.7L279.83,177.63L284.49,199.98L289.16,153.33L293.82,180.58L298.49,182.14L303.15,175.9L307.81,181.27L312.48,173.48L317.14,150.55L321.81,192.77L326.47,197.03L331.13,182.28L335.8,197.42L340.46,201.6L345.12,143.87L349.79,181.87L354.45,163.62L359.12,202.79L363.78,171.29L368.44,178.07L373.11,198.9L377.77,163.33L382.44,209.38L387.1,183.31L391.76,195.46L396.43,201.5L401.09,164.05L410.42,196.38L415.08,176.67L419.75,196.01L424.41,185.47L429.07,179.56L433.74,198.79L438.4,170.58L443.07,172.61L447.73,176.56L452.39,168.27L457.06,189.21L461.72,179.09L466.38,185.74L471.05,174.66L475.71,174.43L480.38,180.57L485.04,192.98" style="vector-effect: none; fill: none; stroke: rgb(86, 86, 86); stroke-opacity: 0.7; stroke-width: 2px; opacity: 1;"/></g><g class="points"/><g class="text"/></g><g class="trace scatter trace8d399a" style="stroke-miterlimit: 2; opacity: 1;"><g class="fills"/><g class="errorbars"/><g class="lines"><path class="js-line" d="M4.66,150.08L9.33,189.88L13.99,16L18.66,205.67L23.32,234.33L27.98,106.15L32.65,168.87L37.31,150.53L41.97,116.97L46.64,214.81L51.3,225.83L55.97,200.41L60.63,202.81L65.29,132.34L69.96,151.33L74.62,221.55L79.29,168.79L83.95,173.55L88.61,192.32L93.28,129.06L97.94,170.27L102.6,186.2L107.27,126.63L111.93,153.41L116.6,220.83L121.26,157.45L125.92,208.74L130.59,248.74L135.25,198.74L139.92,211.27L144.58,181.79L149.24,246.16L153.91,94.8L158.57,170.21L163.23,223.52L167.9,155.65L172.56,193.9L177.23,162.43L181.89,229.95L186.55,210.87L191.22,201.61L195.88,256.36L200.55,165.86L205.21,200.16L209.87,227.15L214.54,254.26L219.2,113.78L223.86,238.66L228.53,182.97L233.19,240.95L237.86,159.99L242.52,74.33L247.18,93.55L251.85,184.32L256.51,189.61L261.18,183.73L265.84,171.59L270.5,168.77L275.17,175.41L279.83,198.41L284.49,202.53L289.16,163.76L293.82,188.31L298.49,196.05L303.15,169.96L307.81,214.86L312.48,169.13L317.14,159.35L321.81,168.49L326.47,230.94L331.13,200.19L335.8,187.56L340.46,209.33L345.12,151.67L349.79,228.34L354.45,126.87L359.12,191.02L363.78,162.3L368.44,200.84L373.11,296.21L377.77,141.63L382.44,222.69L387.1,209.12L391.76,201.3L396.43,213.64L401.09,181.91L405.75,195.95L410.42,177.87L415.08,242.98L419.75,207.22L424.41,161.68L429.07,161.49L433.74,206.27L443.07,162.25L447.73,175.86L452.39,179.16L457.06,150.89L466.38,203.66L471.05,207.55L475.71,97.64L480.38,203.63L485.04,199.16" style="vector-effect: none; fill: none; stroke: rgb(28, 131, 86); stroke-opacity: 0.7; stroke-width: 2px; opacity: 1;"/></g><g class="points"/><g class="text"/></g></g></g></g><path class="xlines-above crisp" d="M0,0" style="fill: none;"/><path class="ylines-above crisp" d="M0,0" style="fill: none;"/><g class="overlines-above"><path class="xy2-x crisp" d="M0,0" style="fill: none;"/><path class="xy2-y crisp" d="M0,0" style="fill: none;"/></g><g class="xaxislayer-above"><g class="xtick"><text text-anchor="middle" x="0" y="433" transform="translate(80,0)" style="font-family: 'Open Sans', verdana, arial, sans-serif; font-size: 12px; fill: rgb(42, 63, 95); fill-opacity: 1; white-space: pre; opacity: 1;">Jan 2018</text></g><g class="xtick"><text text-anchor="middle" x="0" y="433" style="font-family: 'Open Sans', verdana, arial, sans-serif; font-size: 12px; fill: rgb(42, 63, 95); fill-opacity: 1; white-space: pre; opacity: 1;" transform="translate(200.59,0)">Jul 2018</text></g><g class="xtick"><text text-anchor="middle" x="0" y="433" style="font-family: 'Open Sans', verdana, arial, sans-serif; font-size: 12px; fill: rgb(42, 63, 95); fill-opacity: 1; white-space: pre; opacity: 1;" transform="translate(323.19,0)">Jan 2019</text></g><g class="xtick"><text text-anchor="middle" x="0" y="433" style="font-family: 'Open Sans', verdana, arial, sans-serif; font-size: 12px; fill: rgb(42, 63, 95); fill-opacity: 1; white-space: pre; opacity: 1;" transform="translate(443.78,0)">Jul 2019</text></g></g><g class="yaxislayer-above"><g class="ytick"><text text-anchor="end" x="79" y="4.199999999999999" transform="translate(0,419.35)" style="font-family: 'Open Sans', verdana, arial, sans-serif; font-size: 12px; fill: rgb(196, 69, 28); fill-opacity: 1; white-space: pre; opacity: 1;">0.6</text></g><g class="ytick"><text text-anchor="end" x="79" y="4.199999999999999" style="font-family: 'Open Sans', verdana, arial, sans-serif; font-size: 12px; fill: rgb(196, 69, 28); fill-opacity: 1; white-space: pre; opacity: 1;" transform="translate(0,374.67)">0.8</text></g><g class="ytick"><text text-anchor="end" x="79" y="4.199999999999999" style="font-family: 'Open Sans', verdana, arial, sans-serif; font-size: 12px; fill: rgb(196, 69, 28); fill-opacity: 1; white-space: pre; opacity: 1;" transform="translate(0,329.98)">1</text></g><g class="ytick"><text text-anchor="end" x="79" y="4.199999999999999" style="font-family: 'Open Sans', verdana, arial, sans-serif; font-size: 12px; fill: rgb(196, 69, 28); fill-opacity: 1; white-space: pre; opacity: 1;" transform="translate(0,285.28999999999996)">1.2</text></g><g class="ytick"><text text-anchor="end" x="79" y="4.199999999999999" style="font-family: 'Open Sans', verdana, arial, sans-serif; font-size: 12px; fill: rgb(196, 69, 28); fill-opacity: 1; white-space: pre; opacity: 1;" transform="translate(0,240.6)">1.4</text></g><g class="ytick"><text text-anchor="end" x="79" y="4.199999999999999" style="font-family: 'Open Sans', verdana, arial, sans-serif; font-size: 12px; fill: rgb(196, 69, 28); fill-opacity: 1; white-space: pre; opacity: 1;" transform="translate(0,195.92000000000002)">1.6</text></g><g class="ytick"><text text-anchor="end" x="79" y="4.199999999999999" style="font-family: 'Open Sans', verdana, arial, sans-serif; font-size: 12px; fill: rgb(196, 69, 28); fill-opacity: 1; white-space: pre; opacity: 1;" transform="translate(0,151.23)">1.8</text></g><g class="ytick"><text text-anchor="end" x="79" y="4.199999999999999" style="font-family: 'Open Sans', verdana, arial, sans-serif; font-size: 12px; fill: rgb(196, 69, 28); fill-opacity: 1; white-space: pre; opacity: 1;" transform="translate(0,106.54)">2</text></g></g><g class="overaxes-above"><g class="xy2-x"/><g class="xy2-y"><g class="y2tick"><text text-anchor="start" x="566.04" y="4.199999999999999" transform="translate(0,419.35)" style="font-family: 'Open Sans', verdana, arial, sans-serif; font-size: 12px; fill: rgb(196, 69, 28); fill-opacity: 0.7; white-space: pre; opacity: 1;">−0.189</text></g><g class="y2tick"><text text-anchor="start" x="566.04" y="4.199999999999999" style="font-family: 'Open Sans', verdana, arial, sans-serif; font-size: 12px; fill: rgb(196, 69, 28); fill-opacity: 0.7; white-space: pre; opacity: 1;" transform="translate(0,374.67)">−0.125</text></g><g class="y2tick"><text text-anchor="start" x="566.04" y="4.199999999999999" style="font-family: 'Open Sans', verdana, arial, sans-serif; font-size: 12px; fill: rgb(196, 69, 28); fill-opacity: 0.7; white-space: pre; opacity: 1;" transform="translate(0,329.98)">−0.061</text></g><g class="y2tick"><text text-anchor="start" x="566.04" y="4.199999999999999" style="font-family: 'Open Sans', verdana, arial, sans-serif; font-size: 12px; fill: rgb(196, 69, 28); fill-opacity: 0.7; white-space: pre; opacity: 1;" transform="translate(0,285.28999999999996)">0.003</text></g><g class="y2tick"><text text-anchor="start" x="566.04" y="4.199999999999999" style="font-family: 'Open Sans', verdana, arial, sans-serif; font-size: 12px; fill: rgb(196, 69, 28); fill-opacity: 0.7; white-space: pre; opacity: 1;" transform="translate(0,240.6)">0.067</text></g><g class="y2tick"><text text-anchor="start" x="566.04" y="4.199999999999999" style="font-family: 'Open Sans', verdana, arial, sans-serif; font-size: 12px; fill: rgb(196, 69, 28); fill-opacity: 0.7; white-space: pre; opacity: 1;" transform="translate(0,195.92000000000002)">0.131</text></g><g class="y2tick"><text text-anchor="start" x="566.04" y="4.199999999999999" style="font-family: 'Open Sans', verdana, arial, sans-serif; font-size: 12px; fill: rgb(196, 69, 28); fill-opacity: 0.7; white-space: pre; opacity: 1;" transform="translate(0,151.23)">0.195</text></g><g class="y2tick"><text text-anchor="start" x="566.04" y="4.199999999999999" style="font-family: 'Open Sans', verdana, arial, sans-serif; font-size: 12px; fill: rgb(196, 69, 28); fill-opacity: 0.7; white-space: pre; opacity: 1;" transform="translate(0,106.54)">0.259</text></g></g></g></g><g class="subplot xy2"/></g><g class="polarlayer"/><g class="smithlayer"/><g class="ternarylayer"/><g class="geolayer"/><g class="funnelarealayer"/><g class="pielayer"/><g class="iciclelayer"/><g class="treemaplayer"/><g class="sunburstlayer"/><g class="glimages"/><defs id="topdefs-083ed5"><g class="clips"/><clipPath id="legend083ed5"><rect width="82" height="320" x="0" y="0"/></clipPath></defs><g class="layer-above"><g class="imagelayer"/><g class="shapelayer"/></g><g class="infolayer"><g class="legend" pointer-events="all" transform="translate(606.32,100)"><rect class="bg" shape-rendering="crispEdges" style="stroke: rgb(68, 68, 68); stroke-opacity: 1; fill: rgb(255, 255, 255); fill-opacity: 1; stroke-width: 0px;" width="82" height="320" x="0" y="0"/><g class="scrollbox" transform="" clip-path="url(#legend083ed5)"><g class="groups" transform=""><g class="traces" transform="translate(0,14.950000000000001)" style="opacity: 1;"><text class="legendtext" text-anchor="start" x="5" y="5.07" style="font-family: 'Open Sans', verdana, arial, sans-serif; font-size: 13px; fill: rgb(42, 63, 95); fill-opacity: 1; white-space: pre;">ID: AAPL</text><g class="layers"><g class="legendfill"/><g class="legendlines"/><g class="legendsymbols"><g class="legendpoints"/></g></g><rect class="legendtoggle" x="0" y="-9.950000000000001" width="76.59375" height="19.900000000000002" style="fill: rgb(0, 0, 0); fill-opacity: 0;"/></g><g class="traces" transform="translate(0,34.400000000000006)" style="opacity: 1;"><text class="legendtext" text-anchor="start" x="40" y="4.680000000000001" style="font-family: 'Open Sans', verdana, arial, sans-serif; font-size: 12px; fill: rgb(42, 63, 95); fill-opacity: 1; white-space: pre;">P_t</text><g class="layers" style="opacity: 1;"><g class="legendfill"/><g class="legendlines"><path class="js-line" d="M5,0h30" style="fill: none; stroke: rgb(170, 13, 254); stroke-opacity: 1; stroke-width: 2px;"/></g><g class="legendsymbols"><g class="legendpoints"/></g></g><rect class="legendtoggle" x="0" y="-9.5" width="76.59375" height="19" style="fill: rgb(0, 0, 0); fill-opacity: 0;"/></g><g class="traces" transform="translate(0,53.400000000000006)" style="opacity: 1;"><text class="legendtext" text-anchor="start" x="40" y="4.680000000000001" style="font-family: 'Open Sans', verdana, arial, sans-serif; font-size: 12px; fill: rgb(42, 63, 95); fill-opacity: 1; white-space: pre;">R_t</text><g class="layers" style="opacity: 1;"><g class="legendfill"/><g class="legendlines"><path class="js-line" d="M5,0h30" style="fill: none; stroke: rgb(170, 13, 254); stroke-opacity: 0.7; stroke-width: 2px;"/></g><g class="legendsymbols"><g class="legendpoints"/></g></g><rect class="legendtoggle" x="0" y="-9.5" width="76.59375" height="19" style="fill: rgb(0, 0, 0); fill-opacity: 0;"/></g></g><g class="groups" transform="translate(0,10)"><g class="traces" transform="translate(0,72.85000000000001)" style="opacity: 1;"><text class="legendtext" text-anchor="start" x="5" y="5.07" style="font-family: 'Open Sans', verdana, arial, sans-serif; font-size: 13px; fill: rgb(42, 63, 95); fill-opacity: 1; white-space: pre;">ID: AMZN</text><g class="layers"><g class="legendfill"/><g class="legendlines"/><g class="legendsymbols"><g class="legendpoints"/></g></g><rect class="legendtoggle" x="0" y="-9.950000000000001" width="76.59375" height="19.900000000000002" style="fill: rgb(0, 0, 0); fill-opacity: 0;"/></g><g class="traces" transform="translate(0,92.30000000000001)" style="opacity: 1;"><text class="legendtext" text-anchor="start" x="40" y="4.680000000000001" style="font-family: 'Open Sans', verdana, arial, sans-serif; font-size: 12px; fill: rgb(42, 63, 95); fill-opacity: 1; white-space: pre;">P_t</text><g class="layers" style="opacity: 1;"><g class="legendfill"/><g class="legendlines"><path class="js-line" d="M5,0h30" style="fill: none; stroke: rgb(50, 131, 254); stroke-opacity: 1; stroke-width: 2px;"/></g><g class="legendsymbols"><g class="legendpoints"/></g></g><rect class="legendtoggle" x="0" y="-9.5" width="76.59375" height="19" style="fill: rgb(0, 0, 0); fill-opacity: 0;"/></g><g class="traces" transform="translate(0,111.30000000000001)" style="opacity: 1;"><text class="legendtext" text-anchor="start" x="40" y="4.680000000000001" style="font-family: 'Open Sans', verdana, arial, sans-serif; font-size: 12px; fill: rgb(42, 63, 95); fill-opacity: 1; white-space: pre;">R_t</text><g class="layers" style="opacity: 1;"><g class="legendfill"/><g class="legendlines"><path class="js-line" d="M5,0h30" style="fill: none; stroke: rgb(50, 131, 254); stroke-opacity: 0.7; stroke-width: 2px;"/></g><g class="legendsymbols"><g class="legendpoints"/></g></g><rect class="legendtoggle" x="0" y="-9.5" width="76.59375" height="19" style="fill: rgb(0, 0, 0); fill-opacity: 0;"/></g></g><g class="groups" transform="translate(0,20)"><g class="traces" transform="translate(0,130.75)" style="opacity: 1;"><text class="legendtext" text-anchor="start" x="5" y="5.07" style="font-family: 'Open Sans', verdana, arial, sans-serif; font-size: 13px; fill: rgb(42, 63, 95); fill-opacity: 1; white-space: pre;">ID: FB</text><g class="layers"><g class="legendfill"/><g class="legendlines"/><g class="legendsymbols"><g class="legendpoints"/></g></g><rect class="legendtoggle" x="0" y="-9.950000000000001" width="76.59375" height="19.900000000000002" style="fill: rgb(0, 0, 0); fill-opacity: 0;"/></g><g class="traces" transform="translate(0,150.20000000000002)" style="opacity: 1;"><text class="legendtext" text-anchor="start" x="40" y="4.680000000000001" style="font-family: 'Open Sans', verdana, arial, sans-serif; font-size: 12px; fill: rgb(42, 63, 95); fill-opacity: 1; white-space: pre;">P_t</text><g class="layers" style="opacity: 1;"><g class="legendfill"/><g class="legendlines"><path class="js-line" d="M5,0h30" style="fill: none; stroke: rgb(133, 102, 13); stroke-opacity: 1; stroke-width: 2px;"/></g><g class="legendsymbols"><g class="legendpoints"/></g></g><rect class="legendtoggle" x="0" y="-9.5" width="76.59375" height="19" style="fill: rgb(0, 0, 0); fill-opacity: 0;"/></g><g class="traces" transform="translate(0,169.20000000000002)" style="opacity: 1;"><text class="legendtext" text-anchor="start" x="40" y="4.680000000000001" style="font-family: 'Open Sans', verdana, arial, sans-serif; font-size: 12px; fill: rgb(42, 63, 95); fill-opacity: 1; white-space: pre;">R_t</text><g class="layers" style="opacity: 1;"><g class="legendfill"/><g class="legendlines"><path class="js-line" d="M5,0h30" style="fill: none; stroke: rgb(133, 102, 13); stroke-opacity: 0.7; stroke-width: 2px;"/></g><g class="legendsymbols"><g class="legendpoints"/></g></g><rect class="legendtoggle" x="0" y="-9.5" width="76.59375" height="19" style="fill: rgb(0, 0, 0); fill-opacity: 0;"/></g></g><g class="groups" transform="translate(0,30)"><g class="traces" transform="translate(0,188.65)" style="opacity: 1;"><text class="legendtext" text-anchor="start" x="5" y="5.07" style="font-family: 'Open Sans', verdana, arial, sans-serif; font-size: 13px; fill: rgb(42, 63, 95); fill-opacity: 1; white-space: pre;">ID: GOOG</text><g class="layers"><g class="legendfill"/><g class="legendlines"/><g class="legendsymbols"><g class="legendpoints"/></g></g><rect class="legendtoggle" x="0" y="-9.950000000000001" width="76.59375" height="19.900000000000002" style="fill: rgb(0, 0, 0); fill-opacity: 0;"/></g><g class="traces" transform="translate(0,208.10000000000002)" style="opacity: 1;"><text class="legendtext" text-anchor="start" x="40" y="4.680000000000001" style="font-family: 'Open Sans', verdana, arial, sans-serif; font-size: 12px; fill: rgb(42, 63, 95); fill-opacity: 1; white-space: pre;">P_t</text><g class="layers" style="opacity: 1;"><g class="legendfill"/><g class="legendlines"><path class="js-line" d="M5,0h30" style="fill: none; stroke: rgb(120, 42, 182); stroke-opacity: 1; stroke-width: 2px;"/></g><g class="legendsymbols"><g class="legendpoints"/></g></g><rect class="legendtoggle" x="0" y="-9.5" width="76.59375" height="19" style="fill: rgb(0, 0, 0); fill-opacity: 0;"/></g><g class="traces" transform="translate(0,227.10000000000002)" style="opacity: 1;"><text class="legendtext" text-anchor="start" x="40" y="4.680000000000001" style="font-family: 'Open Sans', verdana, arial, sans-serif; font-size: 12px; fill: rgb(42, 63, 95); fill-opacity: 1; white-space: pre;">R_t</text><g class="layers" style="opacity: 1;"><g class="legendfill"/><g class="legendlines"><path class="js-line" d="M5,0h30" style="fill: none; stroke: rgb(120, 42, 182); stroke-opacity: 0.7; stroke-width: 2px;"/></g><g class="legendsymbols"><g class="legendpoints"/></g></g><rect class="legendtoggle" x="0" y="-9.5" width="76.59375" height="19" style="fill: rgb(0, 0, 0); fill-opacity: 0;"/></g></g><g class="groups" transform="translate(0,40)"><g class="traces" transform="translate(0,246.55)" style="opacity: 1;"><text class="legendtext" text-anchor="start" x="5" y="5.07" style="font-family: 'Open Sans', verdana, arial, sans-serif; font-size: 13px; fill: rgb(42, 63, 95); fill-opacity: 1; white-space: pre;">ID: MSFT</text><g class="layers"><g class="legendfill"/><g class="legendlines"/><g class="legendsymbols"><g class="legendpoints"/></g></g><rect class="legendtoggle" x="0" y="-9.950000000000001" width="76.59375" height="19.900000000000002" style="fill: rgb(0, 0, 0); fill-opacity: 0;"/></g><g class="traces" transform="translate(0,266)" style="opacity: 1;"><text class="legendtext" text-anchor="start" x="40" y="4.680000000000001" style="font-family: 'Open Sans', verdana, arial, sans-serif; font-size: 12px; fill: rgb(42, 63, 95); fill-opacity: 1; white-space: pre;">P_t</text><g class="layers" style="opacity: 1;"><g class="legendfill"/><g class="legendlines"><path class="js-line" d="M5,0h30" style="fill: none; stroke: rgb(86, 86, 86); stroke-opacity: 1; stroke-width: 2px;"/></g><g class="legendsymbols"><g class="legendpoints"/></g></g><rect class="legendtoggle" x="0" y="-9.5" width="76.59375" height="19" style="fill: rgb(0, 0, 0); fill-opacity: 0;"/></g><g class="traces" transform="translate(0,285)" style="opacity: 1;"><text class="legendtext" text-anchor="start" x="40" y="4.680000000000001" style="font-family: 'Open Sans', verdana, arial, sans-serif; font-size: 12px; fill: rgb(42, 63, 95); fill-opacity: 1; white-space: pre;">R_t</text><g class="layers" style="opacity: 1;"><g class="legendfill"/><g class="legendlines"><path class="js-line" d="M5,0h30" style="fill: none; stroke: rgb(86, 86, 86); stroke-opacity: 0.7; stroke-width: 2px;"/></g><g class="legendsymbols"><g class="legendpoints"/></g></g><rect class="legendtoggle" x="0" y="-9.5" width="76.59375" height="19" style="fill: rgb(0, 0, 0); fill-opacity: 0;"/></g></g><g class="groups" transform="translate(0,50)"><g class="traces" transform="translate(0,304.45)" style="opacity: 1;"><text class="legendtext" text-anchor="start" x="5" y="5.07" style="font-family: 'Open Sans', verdana, arial, sans-serif; font-size: 13px; fill: rgb(42, 63, 95); fill-opacity: 1; white-space: pre;">ID: NFLX</text><g class="layers"><g class="legendfill"/><g class="legendlines"/><g class="legendsymbols"><g class="legendpoints"/></g></g><rect class="legendtoggle" x="0" y="-9.950000000000001" width="76.59375" height="19.900000000000002" style="fill: rgb(0, 0, 0); fill-opacity: 0;"/></g><g class="traces" transform="translate(0,323.9)" style="opacity: 1;"><text class="legendtext" text-anchor="start" x="40" y="4.680000000000001" style="font-family: 'Open Sans', verdana, arial, sans-serif; font-size: 12px; fill: rgb(42, 63, 95); fill-opacity: 1; white-space: pre;">P_t</text><g class="layers" style="opacity: 1;"><g class="legendfill"/><g class="legendlines"><path class="js-line" d="M5,0h30" style="fill: none; stroke: rgb(28, 131, 86); stroke-opacity: 1; stroke-width: 2px;"/></g><g class="legendsymbols"><g class="legendpoints"/></g></g><rect class="legendtoggle" x="0" y="-9.5" width="76.59375" height="19" style="fill: rgb(0, 0, 0); fill-opacity: 0;"/></g><g class="traces" transform="translate(0,342.9)" style="opacity: 1;"><text class="legendtext" text-anchor="start" x="40" y="4.680000000000001" style="font-family: 'Open Sans', verdana, arial, sans-serif; font-size: 12px; fill: rgb(42, 63, 95); fill-opacity: 1; white-space: pre;">R_t</text><g class="layers" style="opacity: 1;"><g class="legendfill"/><g class="legendlines"><path class="js-line" d="M5,0h30" style="fill: none; stroke: rgb(28, 131, 86); stroke-opacity: 0.7; stroke-width: 2px;"/></g><g class="legendsymbols"><g class="legendpoints"/></g></g><rect class="legendtoggle" x="0" y="-9.5" width="76.59375" height="19" style="fill: rgb(0, 0, 0); fill-opacity: 0;"/></g></g></g><rect class="scrollbar" rx="20" ry="3" width="0" height="0" style="fill: rgb(128, 139, 164); fill-opacity: 1;" x="0" y="0"/></g><g class="g-gtitle"><text class="gtitle" x="35" y="50" text-anchor="start" dy="0em" style="font-family: 'Times New Roman'; font-size: 20px; fill: rgb(0, 0, 255); opacity: 1; font-weight: normal; white-space: pre;"><tspan style="font-weight:bold">Stocks P_t and R_t<tspan style="font-weight:bold"></tspan></tspan></text></g><g class="g-ytitle"><text class="ytitle" transform="rotate(-90,35.075,260)" x="35.075" y="260" text-anchor="middle" style="font-family: 'Open Sans', verdana, arial, sans-serif; font-size: 14px; fill: rgb(196, 69, 28); opacity: 1; font-weight: normal; white-space: pre;">P_t</text></g><g class="g-xtitle"/><g class="g-y2title"><text class="y2title" transform="rotate(-90,635.425,260)" x="635.425" y="260" text-anchor="middle" style="font-family: 'Open Sans', verdana, arial, sans-serif; font-size: 14px; fill: rgb(196, 69, 28); opacity: 0.7; font-weight: normal; white-space: pre;">R_t</text></g></g></svg>