<svg class="main-svg" xmlns="http://www.w3.org/2000/svg" xmlns:xlink="http://www.w3.org/1999/xlink" width="700" height="500" style="" viewBox="0 0 700 500"><rect x="0" y="0" width="700" height="500" style="fill: rgb(255, 255, 255); fill-opacity: 1;"/><defs id="defs-1ca308"><g class="clips"><clipPath id="clip1ca308xyplot" class="plotclip"><rect width="496" height="320"/></clipPath><clipPath class="axesclip" id="clip1ca308x"><rect x="80" y="0" width="496" height="500"/></clipPath><clipPath class="axesclip" id="clip1ca308y"><rect x="0" y="100" width="700" height="320"/></clipPath><clipPath class="axesclip" id="clip1ca308xy"><rect x="80" y="100" width="496" height="320"/></clipPath></g><g class="gradients"/><g class="patterns"/></defs><g class="bglayer"><rect class="bg" x="80" y="100" width="496" height="320" style="fill: rgb(229, 236, 246); fill-opacity: 1; stroke-width: 0;"/></g><g class="layer-below"><g class="imagelayer"/><g class="shapelayer"/></g><g class="cartesianlayer"><g class="subplot xy"><g class="layer-subplot"><g class="shapelayer"/><g class="imagelayer"/></g><g class="minor-gridlayer"><g class="x"/><g class="y"/></g><g class="gridlayer"><g class="x"><path class="xgrid crisp" transform="translate(101.12,0)" d="M0,100v320" style="stroke: rgb(255, 255, 255); stroke-opacity: 1; stroke-width: 1px;"/><path class="xgrid crisp" transform="translate(120.2,0)" d="M0,100v320" style="stroke: rgb(255, 255, 255); stroke-opacity: 1; stroke-width: 1px;"/><path class="xgrid crisp" transform="translate(141.32,0)" d="M0,100v320" style="stroke: rgb(255, 255, 255); stroke-opacity: 1; stroke-width: 1px;"/><path class="xgrid crisp" transform="translate(161.76,0)" d="M0,100v320" style="stroke: rgb(255, 255, 255); stroke-opacity: 1; stroke-width: 1px;"/><path class="xgrid crisp" transform="translate(182.88,0)" d="M0,100v320" style="stroke: rgb(255, 255, 255); stroke-opacity: 1; stroke-width: 1px;"/><path class="xgrid crisp" transform="translate(203.32,0)" d="M0,100v320" style="stroke: rgb(255, 255, 255); stroke-opacity: 1; stroke-width: 1px;"/><path class="xgrid crisp" transform="translate(224.44,0)" d="M0,100v320" style="stroke: rgb(255, 255, 255); stroke-opacity: 1; stroke-width: 1px;"/><path class="xgrid crisp" transform="translate(245.56,0)" d="M0,100v320" style="stroke: rgb(255, 255, 255); stroke-opacity: 1; stroke-width: 1px;"/><path class="xgrid crisp" transform="translate(266,0)" d="M0,100v320" style="stroke: rgb(255, 255, 255); stroke-opacity: 1; stroke-width: 1px;"/><path class="xgrid crisp" transform="translate(287.12,0)" d="M0,100v320" style="stroke: rgb(255, 255, 255); stroke-opacity: 1; stroke-width: 1px;"/><path class="xgrid crisp" transform="translate(307.56,0)" d="M0,100v320" style="stroke: rgb(255, 255, 255); stroke-opacity: 1; stroke-width: 1px;"/><path class="xgrid crisp" transform="translate(328.68,0)" d="M0,100v320" style="stroke: rgb(255, 255, 255); stroke-opacity: 1; stroke-width: 1px;"/><path class="xgrid crisp" transform="translate(349.8,0)" d="M0,100v320" style="stroke: rgb(255, 255, 255); stroke-opacity: 1; stroke-width: 1px;"/><path class="xgrid crisp" transform="translate(368.88,0)" d="M0,100v320" style="stroke: rgb(255, 255, 255); stroke-opacity: 1; stroke-width: 1px;"/><path class="xgrid crisp" transform="translate(390,0)" d="M0,100v320" style="stroke: rgb(255, 255, 255); stroke-opacity: 1; stroke-width: 1px;"/><path class="xgrid crisp" transform="translate(410.44,0)" d="M0,100v320" style="stroke: rgb(255, 255, 255); stroke-opacity: 1; stroke-width: 1px;"/><path class="xgrid crisp" transform="translate(431.56,0)" d="M0,100v320" style="stroke: rgb(255, 255, 255); stroke-opacity: 1; stroke-width: 1px;"/><path class="xgrid crisp" transform="translate(452,0)" d="M0,100v320" style="stroke: rgb(255, 255, 255); stroke-opacity: 1; stroke-width: 1px;"/><path class="xgrid crisp" transform="translate(473.12,0)" d="M0,100v320" style="stroke: rgb(255, 255, 255); stroke-opacity: 1; stroke-width: 1px;"/><path class="xgrid crisp" transform="translate(494.24,0)" d="M0,100v320" style="stroke: rgb(255, 255, 255); stroke-opacity: 1; stroke-width: 1px;"/><path class="xgrid crisp" transform="translate(514.6800000000001,0)" d="M0,100v320" style="stroke: rgb(255, 255, 255); stroke-opacity: 1; stroke-width: 1px;"/><path class="xgrid crisp" transform="translate(535.8,0)" d="M0,100v320" style="stroke: rgb(255, 255, 255); stroke-opacity: 1; stroke-width: 1px;"/><path class="xgrid crisp" transform="translate(556.24,0)" d="M0,100v320" style="stroke: rgb(255, 255, 255); stroke-opacity: 1; stroke-width: 1px;"/></g><g class="y"><path class="ygrid crisp" transform="translate(0,374.67)" d="M80,0h496" style="stroke: rgb(255, 255, 255); stroke-opacity: 1; stroke-width: 1px;"/><path class="ygrid crisp" transform="translate(0,329.98)" d="M80,0h496" style="stroke: rgb(255, 255, 255); stroke-opacity: 1; stroke-width: 1px;"/><path class="ygrid crisp" transform="translate(0,285.28999999999996)" d="M80,0h496" style="stroke: rgb(255, 255, 255); stroke-opacity: 1; stroke-width: 1px;"/><path class="ygrid crisp" transform="translate(0,240.6)" d="M80,0h496" style="stroke: rgb(255, 255, 255); stroke-opacity: 1; stroke-width: 1px;"/><path class="ygrid crisp" transform="translate(0,195.92000000000002)" d="M80,0h496" style="stroke: rgb(255, 255, 255); stroke-opacity: 1; stroke-width: 1px;"/><path class="ygrid crisp" transform="translate(0,151.23)" d="M80,0h496" style="stroke: rgb(255, 255, 255); stroke-opacity: 1; stroke-width: 1px;"/><path class="ygrid crisp" transform="translate(0,106.54)" d="M80,0h496" style="stroke: rgb(255, 255, 255); stroke-opacity: 1; stroke-width: 1px;"/></g></g><g class="zerolinelayer"/><path class="xlines-below"/><path class="ylines-below"/><g class="overlines-below"/><g class="xaxislayer-below"/><g class="yaxislayer-below"/><g class="overaxes-below"/><g class="plot" transform="translate(80,100)" clip-path="url(#clip1ca308xyplot)"><g class="scatterlayer mlayer"><g class="trace scatter traceeb92c0" style="stroke-miterlimit: 2; opacity: 1;"><g class="fills"/><g class="errorbars"/><g class="lines"><path class="js-line" d="M0,229.98L4.77,227.31L9.54,225.56L14.31,234.43L19.08,248.49L23.85,253.71L28.62,233.26L33.38,229.34L38.15,228.43L42.92,223.62L47.69,226.12L52.46,242.82L57.23,239.2L62,238.43L66.77,230.32L71.54,241.83L76.31,246.17L81.08,218.7L85.85,212.63L90.62,215.54L95.38,212.64L104.92,208.66L109.69,212.31L114.46,217.31L119.23,217.07L128.77,209.13L133.54,208.99L138.31,209.58L143.08,187.86L147.85,188.44L152.62,175.61L157.38,177.43L162.15,162.78L166.92,170.86L171.69,167.62L176.46,175.51L181.23,165.19L186,167.05L190.77,169.83L200.31,177.25L205.08,188.51L209.85,192.35L214.62,206.32L219.38,233.44L224.15,225.41L228.92,238.29L233.69,242.13L238.46,260.97L243.23,253.94L248,264.12L252.77,258.97L257.54,253.19L262.31,251.99L267.08,240.81L271.85,235.84L276.62,235.83L281.38,232.57L286.15,230.02L290.92,232.65L295.69,215.78L300.46,209.49L305.23,210.89L310,201.89L314.77,199.5L319.54,193.13L324.31,192.57L329.08,183.06L333.85,201.66L338.62,212.1L343.38,224.91L348.15,229.89L352.92,210.64L357.69,207.33L362.46,199.62L367.23,200.71L372,192.66L376.77,193.85L381.54,194.75L386.31,188.18L395.85,196.8L400.62,189.76L405.38,194.69L410.15,186.9L414.92,181.13L419.69,174.12L424.46,175.42L429.23,174.03L438.77,151.83L443.54,151.57L453.08,126.79L457.85,121.27L462.62,114.1L467.38,119.18L472.15,112.2L476.92,107.78L486.46,96.63L491.23,83.4L496,78.49" style="vector-effect: none; fill: none; stroke: rgb(99, 110, 250); stroke-opacity: 1; stroke-width: 2px; opacity: 1;"/></g><g class="points"/><g class="text"/></g><g class="trace scatter trace782f3c" style="stroke-miterlimit: 2; opacity: 1;"><g class="fills"/><g class="errorbars"/><g class="lines"><path class="js-line" d="M0,229.98L4.77,216.15L9.54,218.08L14.31,198.55L19.08,193.47L23.85,209.9L28.62,190.07L33.38,180.74L38.15,180.7L42.92,166.4L47.69,167.71L52.46,181.55L57.23,190.31L62,197.97L66.77,193.32L71.54,175.74L76.31,167.54L81.08,166.03L85.85,162.03L90.62,167.22L95.38,160.72L100.15,155.01L104.92,147.29L109.69,141.48L114.46,141.54L119.23,144.42L124,142.45L128.77,123.84L133.54,123.72L143.08,121.97L147.85,110.52L152.62,111.26L157.38,107.05L162.15,87.54L166.92,98.56L171.69,95.27L176.46,105.3L181.23,89.3L186,109.91L190.77,128.28L195.54,132.74L200.31,154.78L205.08,150.65L209.85,142.12L214.62,163.76L219.38,180.37L224.15,146.17L228.92,157.27L233.69,164.03L238.46,203.02L243.23,184.74L248,167.04L252.77,155.19L257.54,145.07L262.31,149.73L271.85,164.7L276.62,161.12L281.38,156.83L286.15,149.52L290.92,158.78L295.69,142.14L300.46,132.61L305.23,129.7L310,119.43L314.77,118.38L319.54,114.99L324.31,98.82L329.08,96.67L333.85,109.85L338.62,113.66L343.38,121.97L348.15,130.74L352.92,125.47L357.69,113.54L362.46,105.97L367.23,109.19L372,100.23L376.77,87.85L381.54,96.3L386.31,100.2L391.08,121.98L400.62,127.56L405.38,135.36L410.15,130.52L414.92,120.11L419.69,119.05L424.46,127.27L429.23,139.76L434,137.18L438.77,138.58L443.54,133.93L448.31,133.24L453.08,127.76L457.85,128.77L462.62,137.21L467.38,136.07L472.15,126.06L476.92,135L481.69,133.31L486.46,128.66L491.23,113.52L496,117.51" style="vector-effect: none; fill: none; stroke: rgb(239, 85, 59); stroke-opacity: 1; stroke-width: 2px; opacity: 1;"/></g><g class="points"/><g class="text"/></g><g class="trace scatter trace7c73d4" style="stroke-miterlimit: 2; opacity: 1;"><g class="fills"/><g class="errorbars"/><g class="lines"><path class="js-line" d="M0,229.98L4.77,238.92L9.54,236.63L14.31,226.21L19.08,225.88L23.85,242.82L28.62,241.33L33.38,234.24L38.15,242.21L42.92,231.92L47.69,232.08L52.46,262.82L57.23,262.34L62,265.43L66.77,256.68L71.54,254.58L76.31,245.84L81.08,242.22L85.85,229.81L90.62,234.97L95.38,232.29L100.15,221.44L104.92,227.29L114.46,212.17L119.23,221.05L124,210.39L128.77,205.5L133.54,202.37L138.31,244.28L147.85,237.86L152.62,245.58L162.15,243.28L166.92,258.45L171.69,259.31L176.46,258.58L181.23,256.75L186,265.28L190.77,269.57L195.54,269.2L200.31,279.58L205.08,273.63L214.62,286.56L219.38,295.89L224.15,285.27L228.92,289.09L233.69,281.15L238.46,304L243.23,294.13L248,288.45L257.54,274L262.31,275.23L267.08,255.26L271.85,253.32L276.62,259.1L281.38,259.83L286.15,259.36L290.92,250.61L295.69,254.94L300.46,256.9L305.23,254.09L310,243.29L314.77,239.25L319.54,240.23L324.31,224.43L329.08,219.67L333.85,228.2L338.62,231.83L352.92,246.12L357.69,236.58L362.46,224.85L367.23,222.62L372,218.56L376.77,208.43L381.54,216.22L386.31,214.55L391.08,227.38L395.85,228.78L400.62,233.75L405.38,240.86L410.15,231.39L414.92,229.21L419.69,229.57L424.46,226.3L429.23,241.64L434,237.63L438.77,233.16L443.54,231.17L448.31,228.74L453.08,221.88L457.85,225.21L462.62,220.11L467.38,215.67L472.15,212.29L476.92,213L481.69,221.3L486.46,206.72L491.23,204.57L496,207.98" style="vector-effect: none; fill: none; stroke: rgb(0, 204, 150); stroke-opacity: 1; stroke-width: 2px; opacity: 1;"/></g><g class="points"/><g class="text"/></g><g class="trace scatter tracedb3fc1" style="stroke-miterlimit: 2; opacity: 1;"><g class="fills"/><g class="errorbars"/><g class="lines"><path class="js-line" d="M0,229.98L9.54,222.83L14.31,215.06L23.85,243.04L28.62,231.49L33.38,225L38.15,234.7L42.92,218.26L47.69,223.19L52.46,246.33L57.23,244.26L62,249.28L66.77,244.77L71.54,235.91L76.31,244.61L81.08,240.93L85.85,230.78L90.62,237.25L95.38,235.37L100.15,226.48L104.92,226.2L109.69,219.84L114.46,219.18L119.23,227.26L124,222.29L128.77,212.43L133.54,213.22L138.31,202.36L143.08,205.35L147.85,202.54L152.62,209.96L157.38,205.97L162.15,206.47L166.92,217.29L171.69,215.73L176.46,217.03L181.23,211.48L186,218.81L190.77,228.39L195.54,231.15L200.31,236.21L205.08,238.99L209.85,237.29L214.62,238.24L219.38,245.86L224.15,231.56L228.92,243.29L233.69,242.17L238.46,254.85L243.23,243.19L248,236.37L252.77,239.11L257.54,230.78L262.31,232.26L267.08,228.25L271.85,231.43L276.62,227.66L281.38,228.33L286.15,222.12L290.92,221.85L295.69,213.31L300.46,209.04L305.23,215.57L310,208.71L314.77,206.54L319.54,202.79L324.31,195.53L329.08,213.12L333.85,217.4L338.62,217.8L343.38,223.65L348.15,229.7L352.92,237.32L357.69,233.4L362.46,226L367.23,234.3L372,224.03L376.77,221.33L381.54,224.33L386.31,199.94L391.08,211.38L395.85,212.59L400.62,214.7L405.38,220.03L410.15,212.57L414.92,209.16L419.69,202.14L424.46,204.09L429.23,205.07L434,208.34L438.77,207.03L443.54,200.94L448.31,196.96L453.08,195.21L457.85,187.58L462.62,182.82L467.38,190.83L472.15,188.88L476.92,181.65L481.69,180.19L486.46,179.84L491.23,179.37L496,182.38" style="vector-effect: none; fill: none; stroke: rgb(171, 99, 250); stroke-opacity: 1; stroke-width: 2px; opacity: 1;"/></g><g class="points"/><g class="text"/></g><g class="trace scatter trace0cbabd" style="stroke-miterlimit: 2; opacity: 1;"><g class="fills"/><g class="errorbars"/><g class="lines"><path class="js-line" d="M0,229.98L4.77,226.41L9.54,225.39L14.31,215.11L19.08,220.88L23.85,230L28.62,220.33L33.38,215.11L38.15,217.67L42.92,208.82L47.69,213.74L52.46,232.54L57.23,222.18L62,224.81L66.77,217.59L71.54,212.73L76.31,210.65L81.08,212.32L85.85,205.88L90.62,209.28L95.38,204.21L100.15,198.06L104.92,195.93L109.69,199.73L114.46,199.02L119.23,203.58L124,197.12L128.77,186.3L133.54,184.17L138.31,180.6L143.08,179.69L147.85,177.25L152.62,180.85L157.38,178.77L162.15,168.82L166.92,179.26L171.69,166.18L176.46,163.93L181.23,163.65L190.77,175.81L195.54,178.12L200.31,182.42L205.08,184.45L209.85,175.81L214.62,179.05L219.38,192.28L224.15,172.47L228.92,187.85L233.69,184.78L238.46,204.54L243.23,199.07L248,195.17L252.77,192.96L257.54,180.52L262.31,181.89L267.08,193.01L271.85,185.69L281.38,172.26L286.15,168.31L290.92,173.43L295.69,159.75L305.23,154.6L310,149.66L314.77,146.98L319.54,140.85L324.31,124.33L329.08,126.84L333.85,131.32L338.62,128.94L343.38,133.58L348.15,140.06L352.92,120.5L357.69,117.84L362.46,106.39L367.23,114.02L372,106.16L376.77,101.5L381.54,107.28L386.31,95.32L391.08,106.57L395.85,104.52L400.62,108.52L405.38,115.46L410.15,104.13L414.92,100.99L419.69,105.5L424.46,100.13L429.23,104.46L434,103.48L438.77,99.52L443.54,105.28L453.08,89.29L457.85,83.61L462.62,73.45L467.38,74.42L472.15,69.88L476.92,68.94L486.46,54.6L491.23,50.68L496,53.87" style="vector-effect: none; fill: none; stroke: rgb(255, 161, 90); stroke-opacity: 1; stroke-width: 2px; opacity: 1;"/></g><g class="points"/><g class="text"/></g><g class="trace scatter trace73224c" style="stroke-miterlimit: 2; opacity: 1;"><g class="fills"/><g class="errorbars"/><g class="lines"><path class="js-line" d="M0,229.98L4.77,218.02L9.54,218.84L14.31,161.23L19.08,168.86L23.85,187.97L28.62,157.06L33.38,149.18L38.15,133.09L42.92,100.75L47.69,114.57L52.46,133.2L57.23,139.15L62,146.07L66.77,121.81L71.54,104.66L76.31,121.69L81.08,112.83L85.85,106.05L90.62,108.48L95.38,79.63L100.15,70.44L104.92,69.76L109.69,36.33L114.46,16L119.23,36.92L124,19.02L128.77,32.27L133.54,69.24L138.31,75.46L143.08,88.35L147.85,85.4L152.62,116.35L157.38,71.62L162.15,62.19L166.92,82.41L171.69,65.51L176.46,69.1L181.23,55.33L186,79.57L190.77,92.11L195.54,99.44L200.31,134.39L205.08,124.52L209.85,130.51L214.62,148.88L219.38,178.02L224.15,148.96L228.92,171.3L233.69,169.49L238.46,191.25L243.23,180.94L248,136.79L252.77,94.21L257.54,92.6L262.31,93.72L267.08,91.8L271.85,83.59L276.62,73.69L281.38,67.15L286.15,73.21L290.92,81.43L295.69,68.81L300.46,69.29L305.23,74.02L310,64.52L314.77,79.79L319.54,69.99L324.31,54.56L329.08,43.73L333.85,69.26L338.62,76.27L343.38,76.33L348.15,88.15L352.92,69.44L357.69,91.93L362.46,60.56L367.23,62.57L372,48.5L376.77,56.26L381.54,118.14L386.31,96.13L391.08,114.17L395.85,124.7L400.62,131.23L405.38,143.31L410.15,140.85L414.92,144.66L419.69,140.43L424.46,165.33L429.23,173.49L438.77,152.37L443.54,160.49L448.31,158.87L453.08,148.24L457.85,143.17L462.62,139.49L467.38,123.05L472.15,118.61L476.92,126.38L481.69,135.8L486.46,94.94L491.23,103.25L496,109.12" style="vector-effect: none; fill: none; stroke: rgb(25, 211, 243); stroke-opacity: 1; stroke-width: 2px; opacity: 1;"/></g><g class="points"/><g class="text"/></g></g></g><g class="overplot"/><path class="xlines-above crisp" d="M0,0" style="fill: none;"/><path class="ylines-above crisp" d="M0,0" style="fill: none;"/><g class="overlines-above"/><g class="xaxislayer-above"><g class="xtick"><text text-anchor="start" x="0" y="433" transform="translate(90.56,0) rotate(90,0,427)translate(0,-7.800000000000001)" style="font-family: 'Open Sans', verdana, arial, sans-serif; font-size: 12px; fill: rgb(42, 63, 95); fill-opacity: 1; white-space: pre; opacity: 1;"><tspan class="line" dy="0em" x="0" y="433">Jan</tspan><tspan class="line" dy="1.3em" x="0" y="433">2018</tspan></text></g><g class="xtick"><text text-anchor="start" x="0" y="433" style="font-family: 'Open Sans', verdana, arial, sans-serif; font-size: 12px; fill: rgb(42, 63, 95); fill-opacity: 1; white-space: pre; opacity: 1;" transform="translate(110.66,0) rotate(90,0,427)">Feb</text></g><g class="xtick"><text text-anchor="start" x="0" y="433" style="font-family: 'Open Sans', verdana, arial, sans-serif; font-size: 12px; fill: rgb(42, 63, 95); fill-opacity: 1; white-space: pre; opacity: 1;" transform="translate(130.76,0) rotate(90,0,427)">Mar</text></g><g class="xtick"><text text-anchor="start" x="0" y="433" style="font-family: 'Open Sans', verdana, arial, sans-serif; font-size: 12px; fill: rgb(42, 63, 95); fill-opacity: 1; white-space: pre; opacity: 1;" transform="translate(151.54000000000002,0) rotate(90,0,427)">Apr</text></g><g class="xtick"><text text-anchor="start" x="0" y="433" style="font-family: 'Open Sans', verdana, arial, sans-serif; font-size: 12px; fill: rgb(42, 63, 95); fill-opacity: 1; white-space: pre; opacity: 1;" transform="translate(172.32,0) rotate(90,0,427)">May</text></g><g class="xtick"><text text-anchor="start" x="0" y="433" style="font-family: 'Open Sans', verdana, arial, sans-serif; font-size: 12px; fill: rgb(42, 63, 95); fill-opacity: 1; white-space: pre; opacity: 1;" transform="translate(193.1,0) rotate(90,0,427)">Jun</text></g><g class="xtick"><text text-anchor="start" x="0" y="433" style="font-family: 'Open Sans', verdana, arial, sans-serif; font-size: 12px; fill: rgb(42, 63, 95); fill-opacity: 1; white-space: pre; opacity: 1;" transform="translate(213.88,0) rotate(90,0,427)">Jul</text></g><g class="xtick"><text text-anchor="start" x="0" y="433" style="font-family: 'Open Sans', verdana, arial, sans-serif; font-size: 12px; fill: rgb(42, 63, 95); fill-opacity: 1; white-space: pre; opacity: 1;" transform="translate(235,0) rotate(90,0,427)">Aug</text></g><g class="xtick"><text text-anchor="start" x="0" y="433" style="font-family: 'Open Sans', verdana, arial, sans-serif; font-size: 12px; fill: rgb(42, 63, 95); fill-opacity: 1; white-space: pre; opacity: 1;" transform="translate(255.78,0) rotate(90,0,427)">Sep</text></g><g class="xtick"><text text-anchor="start" x="0" y="433" style="font-family: 'Open Sans', verdana, arial, sans-serif; font-size: 12px; fill: rgb(42, 63, 95); fill-opacity: 1; white-space: pre; opacity: 1;" transform="translate(276.56,0) rotate(90,0,427)">Oct</text></g><g class="xtick"><text text-anchor="start" x="0" y="433" style="font-family: 'Open Sans', verdana, arial, sans-serif; font-size: 12px; fill: rgb(42, 63, 95); fill-opacity: 1; white-space: pre; opacity: 1;" transform="translate(297.34000000000003,0) rotate(90,0,427)">Nov</text></g><g class="xtick"><text text-anchor="start" x="0" y="433" style="font-family: 'Open Sans', verdana, arial, sans-serif; font-size: 12px; fill: rgb(42, 63, 95); fill-opacity: 1; white-space: pre; opacity: 1;" transform="translate(318.12,0) rotate(90,0,427)">Dec</text></g><g class="xtick"><text text-anchor="start" x="0" y="433" style="font-family: 'Open Sans', verdana, arial, sans-serif; font-size: 12px; fill: rgb(42, 63, 95); fill-opacity: 1; white-space: pre; opacity: 1;" transform="translate(339.24,0) rotate(90,0,427)translate(0,-7.800000000000001)"><tspan class="line" dy="0em" x="0" y="433">Jan</tspan><tspan class="line" dy="1.3em" x="0" y="433">2019</tspan></text></g><g class="xtick"><text text-anchor="start" x="0" y="433" style="font-family: 'Open Sans', verdana, arial, sans-serif; font-size: 12px; fill: rgb(42, 63, 95); fill-opacity: 1; white-space: pre; opacity: 1;" transform="translate(359.34,0) rotate(90,0,427)">Feb</text></g><g class="xtick"><text text-anchor="start" x="0" y="433" style="font-family: 'Open Sans', verdana, arial, sans-serif; font-size: 12px; fill: rgb(42, 63, 95); fill-opacity: 1; white-space: pre; opacity: 1;" transform="translate(379.44,0) rotate(90,0,427)">Mar</text></g><g class="xtick"><text text-anchor="start" x="0" y="433" style="font-family: 'Open Sans', verdana, arial, sans-serif; font-size: 12px; fill: rgb(42, 63, 95); fill-opacity: 1; white-space: pre; opacity: 1;" transform="translate(400.22,0) rotate(90,0,427)">Apr</text></g><g class="xtick"><text text-anchor="start" x="0" y="433" style="font-family: 'Open Sans', verdana, arial, sans-serif; font-size: 12px; fill: rgb(42, 63, 95); fill-opacity: 1; white-space: pre; opacity: 1;" transform="translate(421,0) rotate(90,0,427)">May</text></g><g class="xtick"><text text-anchor="start" x="0" y="433" style="font-family: 'Open Sans', verdana, arial, sans-serif; font-size: 12px; fill: rgb(42, 63, 95); fill-opacity: 1; white-space: pre; opacity: 1;" transform="translate(441.78,0) rotate(90,0,427)">Jun</text></g><g class="xtick"><text text-anchor="start" x="0" y="433" style="font-family: 'Open Sans', verdana, arial, sans-serif; font-size: 12px; fill: rgb(42, 63, 95); fill-opacity: 1; white-space: pre; opacity: 1;" transform="translate(462.56,0) rotate(90,0,427)">Jul</text></g><g class="xtick"><text text-anchor="start" x="0" y="433" style="font-family: 'Open Sans', verdana, arial, sans-serif; font-size: 12px; fill: rgb(42, 63, 95); fill-opacity: 1; white-space: pre; opacity: 1;" transform="translate(483.68,0) rotate(90,0,427)">Aug</text></g><g class="xtick"><text text-anchor="start" x="0" y="433" style="font-family: 'Open Sans', verdana, arial, sans-serif; font-size: 12px; fill: rgb(42, 63, 95); fill-opacity: 1; white-space: pre; opacity: 1;" transform="translate(504.46,0) rotate(90,0,427)">Sep</text></g><g class="xtick"><text text-anchor="start" x="0" y="433" style="font-family: 'Open Sans', verdana, arial, sans-serif; font-size: 12px; fill: rgb(42, 63, 95); fill-opacity: 1; white-space: pre; opacity: 1;" transform="translate(525.24,0) rotate(90,0,427)">Oct</text></g><g class="xtick"><text text-anchor="start" x="0" y="433" style="font-family: 'Open Sans', verdana, arial, sans-serif; font-size: 12px; fill: rgb(42, 63, 95); fill-opacity: 1; white-space: pre; opacity: 1;" transform="translate(546.02,0) rotate(90,0,427)">Nov</text></g><g class="xtick"><text text-anchor="start" x="0" y="433" style="font-family: 'Open Sans', verdana, arial, sans-serif; font-size: 12px; fill: rgb(42, 63, 95); fill-opacity: 1; white-space: pre; opacity: 1;" transform="translate(566.46,0) rotate(90,0,427)">Dec</text></g></g><g class="yaxislayer-above"><g class="ytick"><text text-anchor="end" x="79" y="4.199999999999999" transform="translate(0,419.35)" style="font-family: 'Open Sans', verdana, arial, sans-serif; font-size: 12px; fill: rgb(42, 63, 95); fill-opacity: 1; white-space: pre; opacity: 1;">0.6</text></g><g class="ytick"><text text-anchor="end" x="79" y="4.199999999999999" style="font-family: 'Open Sans', verdana, arial, sans-serif; font-size: 12px; fill: rgb(42, 63, 95); fill-opacity: 1; white-space: pre; opacity: 1;" transform="translate(0,374.67)">0.8</text></g><g class="ytick"><text text-anchor="end" x="79" y="4.199999999999999" style="font-family: 'Open Sans', verdana, arial, sans-serif; font-size: 12px; fill: rgb(42, 63, 95); fill-opacity: 1; white-space: pre; opacity: 1;" transform="translate(0,329.98)">1</text></g><g class="ytick"><text text-anchor="end" x="79" y="4.199999999999999" style="font-family: 'Open Sans', verdana, arial, sans-serif; font-size: 12px; fill: rgb(42, 63, 95); fill-opacity: 1; white-space: pre; opacity: 1;" transform="translate(0,285.28999999999996)">1.2</text></g><g class="ytick"><text text-anchor="end" x="79" y="4.199999999999999" style="font-family: 'Open Sans', verdana, arial, sans-serif; font-size: 12px; fill: rgb(42, 63, 95); fill-opacity: 1; white-space: pre; opacity: 1;" transform="translate(0,240.6)">1.4</text></g><g class="ytick"><text text-anchor="end" x="79" y="4.199999999999999" style="font-family: 'Open Sans', verdana, arial, sans-serif; font-size: 12px; fill: rgb(42, 63, 95); fill-opacity: 1; white-space: pre; opacity: 1;" transform="translate(0,195.92000000000002)">1.6</text></g><g class="ytick"><text text-anchor="end" x="79" y="4.199999999999999" style="font-family: 'Open Sans', verdana, arial, sans-serif; font-size: 12px; fill: rgb(42, 63, 95); fill-opacity: 1; white-space: pre; opacity: 1;" transform="translate(0,151.23)">1.8</text></g><g class="ytick"><text text-anchor="end" x="79" y="4.199999999999999" style="font-family: 'Open Sans', verdana, arial, sans-serif; font-size: 12px; fill: rgb(42, 63, 95); fill-opacity: 1; white-space: pre; opacity: 1;" transform="translate(0,106.54)">2</text></g></g><g class="overaxes-above"/></g></g><g class="polarlayer"/><g class="smithlayer"/><g class="ternarylayer"/><g class="geolayer"/><g class="funnelarealayer"/><g class="pielayer"/><g class="iciclelayer"/><g class="treemaplayer"/><g class="sunburstlayer"/><g class="glimages"/><defs id="topdefs-1ca308"><g class="clips"/><clipPath id="legend1ca308"><rect width="102" height="124" x="0" y="0"/></clipPath></defs><g class="layer-above"><g class="imagelayer"/><g class="shapelayer"/></g><g class="infolayer"><g class="legend" pointer-events="all" transform="translate(585.9200000000001,100)"><rect class="bg" shape-rendering="crispEdges" style="stroke: rgb(68, 68, 68); stroke-opacity: 1; fill: rgb(255, 255, 255); fill-opacity: 1; stroke-width: 0px;" width="102" height="124" x="0" y="0"/><g class="scrollbox" transform="" clip-path="url(#legend1ca308)"><g class="groups"><g class="traces" transform="translate(0,14.5)" style="opacity: 1;"><text class="legendtext" text-anchor="start" x="40" y="4.680000000000001" style="font-family: 'Open Sans', verdana, arial, sans-serif; font-size: 12px; fill: rgb(42, 63, 95); fill-opacity: 1; white-space: pre;">ID AAPL</text><g class="layers" style="opacity: 1;"><g class="legendfill"/><g class="legendlines"><path class="js-line" d="M5,0h30" style="fill: none; stroke: rgb(99, 110, 250); stroke-opacity: 1; stroke-width: 2px;"/></g><g class="legendsymbols"><g class="legendpoints"/></g></g><rect class="legendtoggle" x="0" y="-9.5" width="96.015625" height="19" style="fill: rgb(0, 0, 0); fill-opacity: 0;"/></g><g class="traces" transform="translate(0,33.5)" style="opacity: 1;"><text class="legendtext" text-anchor="start" x="40" y="4.680000000000001" style="font-family: 'Open Sans', verdana, arial, sans-serif; font-size: 12px; fill: rgb(42, 63, 95); fill-opacity: 1; white-space: pre;">ID AMZN</text><g class="layers" style="opacity: 1;"><g class="legendfill"/><g class="legendlines"><path class="js-line" d="M5,0h30" style="fill: none; stroke: rgb(239, 85, 59); stroke-opacity: 1; stroke-width: 2px;"/></g><g class="legendsymbols"><g class="legendpoints"/></g></g><rect class="legendtoggle" x="0" y="-9.5" width="96.015625" height="19" style="fill: rgb(0, 0, 0); fill-opacity: 0;"/></g><g class="traces" transform="translate(0,52.5)" style="opacity: 1;"><text class="legendtext" text-anchor="start" x="40" y="4.680000000000001" style="font-family: 'Open Sans', verdana, arial, sans-serif; font-size: 12px; fill: rgb(42, 63, 95); fill-opacity: 1; white-space: pre;">ID FB</text><g class="layers" style="opacity: 1;"><g class="legendfill"/><g class="legendlines"><path class="js-line" d="M5,0h30" style="fill: none; stroke: rgb(0, 204, 150); stroke-opacity: 1; stroke-width: 2px;"/></g><g class="legendsymbols"><g class="legendpoints"/></g></g><rect class="legendtoggle" x="0" y="-9.5" width="96.015625" height="19" style="fill: rgb(0, 0, 0); fill-opacity: 0;"/></g><g class="traces" transform="translate(0,71.5)" style="opacity: 1;"><text class="legendtext" text-anchor="start" x="40" y="4.680000000000001" style="font-family: 'Open Sans', verdana, arial, sans-serif; font-size: 12px; fill: rgb(42, 63, 95); fill-opacity: 1; white-space: pre;">ID GOOG</text><g class="layers" style="opacity: 1;"><g class="legendfill"/><g class="legendlines"><path class="js-line" d="M5,0h30" style="fill: none; stroke: rgb(171, 99, 250); stroke-opacity: 1; stroke-width: 2px;"/></g><g class="legendsymbols"><g class="legendpoints"/></g></g><rect class="legendtoggle" x="0" y="-9.5" width="96.015625" height="19" style="fill: rgb(0, 0, 0); fill-opacity: 0;"/></g><g class="traces" transform="translate(0,90.5)" style="opacity: 1;"><text class="legendtext" text-anchor="start" x="40" y="4.680000000000001" style="font-family: 'Open Sans', verdana, arial, sans-serif; font-size: 12px; fill: rgb(42, 63, 95); fill-opacity: 1; white-space: pre;">ID MSFT</text><g class="layers" style="opacity: 1;"><g class="legendfill"/><g class="legendlines"><path class="js-line" d="M5,0h30" style="fill: none; stroke: rgb(255, 161, 90); stroke-opacity: 1; stroke-width: 2px;"/></g><g class="legendsymbols"><g class="legendpoints"/></g></g><rect class="legendtoggle" x="0" y="-9.5" width="96.015625" height="19" style="fill: rgb(0, 0, 0); fill-opacity: 0;"/></g><g class="traces" transform="translate(0,109.5)" style="opacity: 1;"><text class="legendtext" text-anchor="start" x="40" y="4.680000000000001" style="font-family: 'Open Sans', verdana, arial, sans-serif; font-size: 12px; fill: rgb(42, 63, 95); fill-opacity: 1; white-space: pre;">ID NFLX</text><g class="layers" style="opacity: 1;"><g class="legendfill"/><g class="legendlines"><path class="js-line" d="M5,0h30" style="fill: none; stroke: rgb(25, 211, 243); stroke-opacity: 1; stroke-width: 2px;"/></g><g class="legendsymbols"><g class="legendpoints"/></g></g><rect class="legendtoggle" x="0" y="-9.5" width="96.015625" height="19" style="fill: rgb(0, 0, 0); fill-opacity: 0;"/></g></g></g><rect class="scrollbar" rx="20" ry="3" width="0" height="0" style="fill: rgb(128, 139, 164); fill-opacity: 1;" x="0" y="0"/></g><g class="g-gtitle"><text class="gtitle" x="35" y="50" text-anchor="start" dy="0em" style="font-family: 'Open Sans', verdana, arial, sans-serif; font-size: 17px; fill: rgb(42, 63, 95); opacity: 1; font-weight: normal; white-space: pre;">Custom Tick Labels</text></g><g class="g-xtitle"/><g class="g-ytitle"/></g></svg>