<svg class="main-svg" xmlns="http://www.w3.org/2000/svg" xmlns:xlink="http://www.w3.org/1999/xlink" width="700" height="500" style="" viewBox="0 0 700 500"><rect x="0" y="0" width="700" height="500" style="fill: rgb(255, 255, 255); fill-opacity: 1;"/><defs id="defs-00bc3d"><g class="clips"><clipPath id="clip00bc3dxyplot" class="plotclip"><rect width="515" height="320"/></clipPath><clipPath class="axesclip" id="clip00bc3dx"><rect x="80" y="0" width="515" height="500"/></clipPath><clipPath class="axesclip" id="clip00bc3dy"><rect x="0" y="100" width="700" height="320"/></clipPath><clipPath class="axesclip" id="clip00bc3dxy"><rect x="80" y="100" width="515" height="320"/></clipPath></g><g class="gradients"/><g class="patterns"/></defs><g class="bglayer"><rect class="bg" x="80" y="100" width="515" height="320" style="fill: rgb(229, 236, 246); fill-opacity: 1; stroke-width: 0;"/></g><g class="layer-below"><g class="imagelayer"/><g class="shapelayer"/></g><g class="cartesianlayer"><g class="subplot xy"><g class="layer-subplot"><g class="shapelayer"/><g class="imagelayer"/></g><g class="minor-gridlayer"><g class="x"/><g class="y"/></g><g class="gridlayer"><g class="x"><path class="xgrid crisp" transform="translate(101.93,0)" d="M0,100v320" style="stroke: rgb(255, 255, 255); stroke-opacity: 1; stroke-width: 1px;"/><path class="xgrid crisp" transform="translate(121.74000000000001,0)" d="M0,100v320" style="stroke: rgb(255, 255, 255); stroke-opacity: 1; stroke-width: 1px;"/><path class="xgrid crisp" transform="translate(143.67000000000002,0)" d="M0,100v320" style="stroke: rgb(255, 255, 255); stroke-opacity: 1; stroke-width: 1px;"/><path class="xgrid crisp" transform="translate(164.89,0)" d="M0,100v320" style="stroke: rgb(255, 255, 255); stroke-opacity: 1; stroke-width: 1px;"/><path class="xgrid crisp" transform="translate(186.82,0)" d="M0,100v320" style="stroke: rgb(255, 255, 255); stroke-opacity: 1; stroke-width: 1px;"/><path class="xgrid crisp" transform="translate(208.04,0)" d="M0,100v320" style="stroke: rgb(255, 255, 255); stroke-opacity: 1; stroke-width: 1px;"/><path class="xgrid crisp" transform="translate(229.97,0)" d="M0,100v320" style="stroke: rgb(255, 255, 255); stroke-opacity: 1; stroke-width: 1px;"/><path class="xgrid crisp" transform="translate(251.9,0)" d="M0,100v320" style="stroke: rgb(255, 255, 255); stroke-opacity: 1; stroke-width: 1px;"/><path class="xgrid crisp" transform="translate(273.13,0)" d="M0,100v320" style="stroke: rgb(255, 255, 255); stroke-opacity: 1; stroke-width: 1px;"/><path class="xgrid crisp" transform="translate(295.05,0)" d="M0,100v320" style="stroke: rgb(255, 255, 255); stroke-opacity: 1; stroke-width: 1px;"/><path class="xgrid crisp" transform="translate(316.28,0)" d="M0,100v320" style="stroke: rgb(255, 255, 255); stroke-opacity: 1; stroke-width: 1px;"/><path class="xgrid crisp" transform="translate(338.21,0)" d="M0,100v320" style="stroke: rgb(255, 255, 255); stroke-opacity: 1; stroke-width: 1px;"/><path class="xgrid crisp" transform="translate(360.14,0)" d="M0,100v320" style="stroke: rgb(255, 255, 255); stroke-opacity: 1; stroke-width: 1px;"/><path class="xgrid crisp" transform="translate(379.95,0)" d="M0,100v320" style="stroke: rgb(255, 255, 255); stroke-opacity: 1; stroke-width: 1px;"/><path class="xgrid crisp" transform="translate(401.88,0)" d="M0,100v320" style="stroke: rgb(255, 255, 255); stroke-opacity: 1; stroke-width: 1px;"/><path class="xgrid crisp" transform="translate(423.1,0)" d="M0,100v320" style="stroke: rgb(255, 255, 255); stroke-opacity: 1; stroke-width: 1px;"/><path class="xgrid crisp" transform="translate(445.03,0)" d="M0,100v320" style="stroke: rgb(255, 255, 255); stroke-opacity: 1; stroke-width: 1px;"/><path class="xgrid crisp" transform="translate(466.25,0)" d="M0,100v320" style="stroke: rgb(255, 255, 255); stroke-opacity: 1; stroke-width: 1px;"/><path class="xgrid crisp" transform="translate(488.18,0)" d="M0,100v320" style="stroke: rgb(255, 255, 255); stroke-opacity: 1; stroke-width: 1px;"/><path class="xgrid crisp" transform="translate(510.11,0)" d="M0,100v320" style="stroke: rgb(255, 255, 255); stroke-opacity: 1; stroke-width: 1px;"/><path class="xgrid crisp" transform="translate(531.3299999999999,0)" d="M0,100v320" style="stroke: rgb(255, 255, 255); stroke-opacity: 1; stroke-width: 1px;"/><path class="xgrid crisp" transform="translate(553.26,0)" d="M0,100v320" style="stroke: rgb(255, 255, 255); stroke-opacity: 1; stroke-width: 1px;"/><path class="xgrid crisp" transform="translate(574.48,0)" d="M0,100v320" style="stroke: rgb(255, 255, 255); stroke-opacity: 1; stroke-width: 1px;"/></g><g class="y"><path class="ygrid crisp" transform="translate(0,374.67)" d="M80,0h515" style="stroke: rgb(255, 255, 255); stroke-opacity: 1; stroke-width: 1px;"/><path class="ygrid crisp" transform="translate(0,329.98)" d="M80,0h515" style="stroke: rgb(255, 255, 255); stroke-opacity: 1; stroke-width: 1px;"/><path class="ygrid crisp" transform="translate(0,285.28999999999996)" d="M80,0h515" style="stroke: rgb(255, 255, 255); stroke-opacity: 1; stroke-width: 1px;"/><path class="ygrid crisp" transform="translate(0,240.6)" d="M80,0h515" style="stroke: rgb(255, 255, 255); stroke-opacity: 1; stroke-width: 1px;"/><path class="ygrid crisp" transform="translate(0,195.92000000000002)" d="M80,0h515" style="stroke: rgb(255, 255, 255); stroke-opacity: 1; stroke-width: 1px;"/><path class="ygrid crisp" transform="translate(0,151.23)" d="M80,0h515" style="stroke: rgb(255, 255, 255); stroke-opacity: 1; stroke-width: 1px;"/><path class="ygrid crisp" transform="translate(0,106.54)" d="M80,0h515" style="stroke: rgb(255, 255, 255); stroke-opacity: 1; stroke-width: 1px;"/></g></g><g class="zerolinelayer"/><path class="xlines-below"/><path class="ylines-below"/><g class="overlines-below"/><g class="xaxislayer-below"/><g class="yaxislayer-below"/><g class="overaxes-below"/><g class="plot" transform="translate(80,100)" clip-path="url(#clip00bc3dxyplot)"><g class="scatterlayer mlayer"><g class="trace scatter traceb79c19" style="stroke-miterlimit: 2; opacity: 1;"><g class="fills"/><g class="errorbars"/><g class="lines"><path class="js-line" d="M0,229.98L9.9,222.83L14.86,215.06L24.76,243.04L29.71,231.49L34.66,225L39.62,234.7L44.57,218.26L49.52,223.19L54.47,246.33L59.42,244.26L64.38,249.28L69.33,244.77L74.28,235.91L79.23,244.61L84.18,240.93L89.13,230.78L94.09,237.25L99.04,235.37L103.99,226.48L108.94,226.2L113.89,219.84L118.85,219.18L123.8,227.26L128.75,222.29L133.7,212.43L138.65,213.22L143.61,202.36L148.56,205.35L153.51,202.54L158.46,209.96L163.41,205.97L168.37,206.47L173.32,217.29L178.27,215.73L183.22,217.03L188.17,211.48L193.13,218.81L198.08,228.39L203.03,231.15L207.98,236.21L212.93,238.99L217.88,237.29L222.84,238.24L227.79,245.86L232.74,231.56L237.69,243.29L242.64,242.17L247.6,254.85L252.55,243.19L257.5,236.37L262.45,239.11L267.4,230.78L272.36,232.26L277.31,228.25L282.26,231.43L287.21,227.66L292.16,228.33L297.12,222.12L302.07,221.85L307.02,213.31L311.97,209.04L316.92,215.57L321.88,208.71L326.83,206.54L331.78,202.79L336.73,195.53L341.68,213.12L346.63,217.4L351.59,217.8L356.54,223.65L361.49,229.7L366.44,237.32L371.39,233.4L376.35,226L381.3,234.3L386.25,224.03L391.2,221.33L396.15,224.33L401.11,199.94L406.06,211.38L411.01,212.59L415.96,214.7L420.91,220.03L425.87,212.57L430.82,209.16L435.77,202.14L440.72,204.09L445.67,205.07L450.63,208.34L455.58,207.03L460.53,200.94L465.48,196.96L470.43,195.21L475.38,187.58L480.34,182.82L485.29,190.83L490.24,188.88L495.19,181.65L500.14,180.19L505.1,179.84L510.05,179.37L515,182.38" style="vector-effect: none; fill: none; stroke: rgb(99, 110, 250); stroke-opacity: 1; stroke-width: 2px; opacity: 1;"/></g><g class="points"/><g class="text"/></g><g class="trace scatter tracead0748" style="stroke-miterlimit: 2; opacity: 1;"><g class="fills"/><g class="errorbars"/><g class="lines"><path class="js-line" d="M0,229.98L4.95,227.31L9.9,225.56L14.86,234.43L19.81,248.49L24.76,253.71L29.71,233.26L34.66,229.34L39.62,228.43L44.57,223.62L49.52,226.12L54.47,242.82L59.42,239.2L64.38,238.43L69.33,230.32L74.28,241.83L79.23,246.17L84.18,218.7L89.13,212.63L94.09,215.54L99.04,212.64L108.94,208.66L113.89,212.31L118.85,217.31L123.8,217.07L133.7,209.13L138.65,208.99L143.61,209.58L148.56,187.86L153.51,188.44L158.46,175.61L163.41,177.43L168.37,162.78L173.32,170.86L178.27,167.62L183.22,175.51L188.17,165.19L193.13,167.05L198.08,169.83L207.98,177.25L212.93,188.51L217.88,192.35L222.84,206.32L227.79,233.44L232.74,225.41L237.69,238.29L242.64,242.13L247.6,260.97L252.55,253.94L257.5,264.12L262.45,258.97L267.4,253.19L272.36,251.99L277.31,240.81L282.26,235.84L287.21,235.83L292.16,232.57L297.12,230.02L302.07,232.65L307.02,215.78L311.97,209.49L316.92,210.89L321.88,201.89L326.83,199.5L331.78,193.13L336.73,192.57L341.68,183.06L346.63,201.66L351.59,212.1L356.54,224.91L361.49,229.89L366.44,210.64L371.39,207.33L376.35,199.62L381.3,200.71L386.25,192.66L391.2,193.85L396.15,194.75L401.11,188.18L411.01,196.8L415.96,189.76L420.91,194.69L425.87,186.9L430.82,181.13L435.77,174.12L440.72,175.42L445.67,174.03L455.58,151.83L460.53,151.57L470.43,126.79L475.38,121.27L480.34,114.1L485.29,119.18L490.24,112.2L495.19,107.78L505.1,96.63L510.05,83.4L515,78.49" style="vector-effect: none; fill: none; stroke: rgb(239, 85, 59); stroke-opacity: 1; stroke-width: 2px; opacity: 1;"/></g><g class="points"/><g class="text"/></g><g class="trace scatter trace93050e" style="stroke-miterlimit: 2; opacity: 1;"><g class="fills"/><g class="errorbars"/><g class="lines"><path class="js-line" d="M0,229.98L4.95,216.15L9.9,218.08L14.86,198.55L19.81,193.47L24.76,209.9L29.71,190.07L34.66,180.74L39.62,180.7L44.57,166.4L49.52,167.71L54.47,181.55L59.42,190.31L64.38,197.97L69.33,193.32L74.28,175.74L79.23,167.54L84.18,166.03L89.13,162.03L94.09,167.22L99.04,160.72L103.99,155.01L108.94,147.29L113.89,141.48L118.85,141.54L123.8,144.42L128.75,142.45L133.7,123.84L138.65,123.72L148.56,121.97L153.51,110.52L158.46,111.26L163.41,107.05L168.37,87.54L173.32,98.56L178.27,95.27L183.22,105.3L188.17,89.3L193.13,109.91L198.08,128.28L203.03,132.74L207.98,154.78L212.93,150.65L217.88,142.12L222.84,163.76L227.79,180.37L232.74,146.17L237.69,157.27L242.64,164.03L247.6,203.02L252.55,184.74L257.5,167.04L262.45,155.19L267.4,145.07L272.36,149.73L282.26,164.7L287.21,161.12L292.16,156.83L297.12,149.52L302.07,158.78L307.02,142.14L311.97,132.61L316.92,129.7L321.88,119.43L326.83,118.38L331.78,114.99L336.73,98.82L341.68,96.67L346.63,109.85L351.59,113.66L356.54,121.97L361.49,130.74L366.44,125.47L371.39,113.54L376.35,105.97L381.3,109.19L386.25,100.23L391.2,87.85L396.15,96.3L401.11,100.2L406.06,121.98L415.96,127.56L420.91,135.36L425.87,130.52L430.82,120.11L435.77,119.05L440.72,127.27L445.67,139.76L450.63,137.18L455.58,138.58L460.53,133.93L465.48,133.24L470.43,127.76L475.38,128.77L480.34,137.21L485.29,136.07L490.24,126.06L495.19,135L500.14,133.31L505.1,128.66L510.05,113.52L515,117.51" style="vector-effect: none; fill: none; stroke: rgb(0, 204, 150); stroke-opacity: 1; stroke-width: 2px; opacity: 1;"/></g><g class="points"/><g class="text"/></g><g class="trace scatter tracec6dfc7" style="stroke-miterlimit: 2; opacity: 1;"><g class="fills"/><g class="errorbars"/><g class="lines"><path class="js-line" d="M0,229.98L4.95,238.92L9.9,236.63L14.86,226.21L19.81,225.88L24.76,242.82L29.71,241.33L34.66,234.24L39.62,242.21L44.57,231.92L49.52,232.08L54.47,262.82L59.42,262.34L64.38,265.43L69.33,256.68L74.28,254.58L79.23,245.84L84.18,242.22L89.13,229.81L94.09,234.97L99.04,232.29L103.99,221.44L108.94,227.29L118.85,212.17L123.8,221.05L128.75,210.39L133.7,205.5L138.65,202.37L143.61,244.28L153.51,237.86L158.46,245.58L168.37,243.28L173.32,258.45L178.27,259.31L183.22,258.58L188.17,256.75L193.13,265.28L198.08,269.57L203.03,269.2L207.98,279.58L212.93,273.63L222.84,286.56L227.79,295.89L232.74,285.27L237.69,289.09L242.64,281.15L247.6,304L252.55,294.13L257.5,288.45L267.4,274L272.36,275.23L277.31,255.26L282.26,253.32L287.21,259.1L292.16,259.83L297.12,259.36L302.07,250.61L307.02,254.94L311.97,256.9L316.92,254.09L321.88,243.29L326.83,239.25L331.78,240.23L336.73,224.43L341.68,219.67L346.63,228.2L351.59,231.83L366.44,246.12L371.39,236.58L376.35,224.85L381.3,222.62L386.25,218.56L391.2,208.43L396.15,216.22L401.11,214.55L406.06,227.38L411.01,228.78L415.96,233.75L420.91,240.86L425.87,231.39L430.82,229.21L435.77,229.57L440.72,226.3L445.67,241.64L450.63,237.63L455.58,233.16L460.53,231.17L465.48,228.74L470.43,221.88L475.38,225.21L480.34,220.11L485.29,215.67L490.24,212.29L495.19,213L500.14,221.3L505.1,206.72L510.05,204.57L515,207.98" style="vector-effect: none; fill: none; stroke: rgb(171, 99, 250); stroke-opacity: 1; stroke-width: 2px; opacity: 1;"/></g><g class="points"/><g class="text"/></g><g class="trace scatter trace0b5439" style="stroke-miterlimit: 2; opacity: 1;"><g class="fills"/><g class="errorbars"/><g class="lines"><path class="js-line" d="M0,229.98L4.95,218.02L9.9,218.84L14.86,161.23L19.81,168.86L24.76,187.97L29.71,157.06L34.66,149.18L39.62,133.09L44.57,100.75L49.52,114.57L54.47,133.2L59.42,139.15L64.38,146.07L69.33,121.81L74.28,104.66L79.23,121.69L84.18,112.83L89.13,106.05L94.09,108.48L99.04,79.63L103.99,70.44L108.94,69.76L113.89,36.33L118.85,16L123.8,36.92L128.75,19.02L133.7,32.27L138.65,69.24L143.61,75.46L148.56,88.35L153.51,85.4L158.46,116.35L163.41,71.62L168.37,62.19L173.32,82.41L178.27,65.51L183.22,69.1L188.17,55.33L193.13,79.57L198.08,92.11L203.03,99.44L207.98,134.39L212.93,124.52L217.88,130.51L222.84,148.88L227.79,178.02L232.74,148.96L237.69,171.3L242.64,169.49L247.6,191.25L252.55,180.94L257.5,136.79L262.45,94.21L267.4,92.6L272.36,93.72L277.31,91.8L282.26,83.59L287.21,73.69L292.16,67.15L297.12,73.21L302.07,81.43L307.02,68.81L311.97,69.29L316.92,74.02L321.88,64.52L326.83,79.79L331.78,69.99L336.73,54.56L341.68,43.73L346.63,69.26L351.59,76.27L356.54,76.33L361.49,88.15L366.44,69.44L371.39,91.93L376.35,60.56L381.3,62.57L386.25,48.5L391.2,56.26L396.15,118.14L401.11,96.13L406.06,114.17L411.01,124.7L415.96,131.23L420.91,143.31L425.87,140.85L430.82,144.66L435.77,140.43L440.72,165.33L445.67,173.49L455.58,152.37L460.53,160.49L465.48,158.87L470.43,148.24L475.38,143.17L480.34,139.49L485.29,123.05L490.24,118.61L495.19,126.38L500.14,135.8L505.1,94.94L510.05,103.25L515,109.12" style="vector-effect: none; fill: none; stroke: rgb(255, 161, 90); stroke-opacity: 1; stroke-width: 2px; opacity: 1;"/></g><g class="points"/><g class="text"/></g><g class="trace scatter trace362bf1" style="stroke-miterlimit: 2; opacity: 1;"><g class="fills"/><g class="errorbars"/><g class="lines"><path class="js-line" d="M0,229.98L4.95,226.41L9.9,225.39L14.86,215.11L19.81,220.88L24.76,230L29.71,220.33L34.66,215.11L39.62,217.67L44.57,208.82L49.52,213.74L54.47,232.54L59.42,222.18L64.38,224.81L69.33,217.59L74.28,212.73L79.23,210.65L84.18,212.32L89.13,205.88L94.09,209.28L99.04,204.21L103.99,198.06L108.94,195.93L113.89,199.73L118.85,199.02L123.8,203.58L128.75,197.12L133.7,186.3L138.65,184.17L143.61,180.6L148.56,179.69L153.51,177.25L158.46,180.85L163.41,178.77L168.37,168.82L173.32,179.26L178.27,166.18L183.22,163.93L188.17,163.65L198.08,175.81L203.03,178.12L207.98,182.42L212.93,184.45L217.88,175.81L222.84,179.05L227.79,192.28L232.74,172.47L237.69,187.85L242.64,184.78L247.6,204.54L252.55,199.07L257.5,195.17L262.45,192.96L267.4,180.52L272.36,181.89L277.31,193.01L282.26,185.69L292.16,172.26L297.12,168.31L302.07,173.43L307.02,159.75L316.92,154.6L321.88,149.66L326.83,146.98L331.78,140.85L336.73,124.33L341.68,126.84L346.63,131.32L351.59,128.94L356.54,133.58L361.49,140.06L366.44,120.5L371.39,117.84L376.35,106.39L381.3,114.02L386.25,106.16L391.2,101.5L396.15,107.28L401.11,95.32L406.06,106.57L411.01,104.52L415.96,108.52L420.91,115.46L425.87,104.13L430.82,100.99L435.77,105.5L440.72,100.13L445.67,104.46L450.63,103.48L455.58,99.52L460.53,105.28L470.43,89.29L475.38,83.61L480.34,73.45L485.29,74.42L490.24,69.88L495.19,68.94L505.1,54.6L510.05,50.68L515,53.87" style="vector-effect: none; fill: none; stroke: rgb(25, 211, 243); stroke-opacity: 1; stroke-width: 2px; opacity: 1;"/></g><g class="points"/><g class="text"/></g></g></g><g class="overplot"/><path class="xlines-above crisp" d="M0,0" style="fill: none;"/><path class="ylines-above crisp" d="M0,0" style="fill: none;"/><g class="overlines-above"/><g class="xaxislayer-above"><g class="xtick"><text text-anchor="start" x="0" y="433" transform="translate(90.96000000000001,0) rotate(90,0,427)translate(0,-7.800000000000001)" style="font-family: 'Open Sans', verdana, arial, sans-serif; font-size: 12px; fill: rgb(42, 63, 95); fill-opacity: 1; white-space: pre; opacity: 1;"><tspan class="line" dy="0em" x="0" y="433">Jan</tspan><tspan class="line" dy="1.3em" x="0" y="433">2018</tspan></text></g><g class="xtick"><text text-anchor="start" x="0" y="433" style="font-family: 'Open Sans', verdana, arial, sans-serif; font-size: 12px; fill: rgb(42, 63, 95); fill-opacity: 1; white-space: pre; opacity: 1;" transform="translate(111.83,0) rotate(90,0,427)">Feb</text></g><g class="xtick"><text text-anchor="start" x="0" y="433" style="font-family: 'Open Sans', verdana, arial, sans-serif; font-size: 12px; fill: rgb(42, 63, 95); fill-opacity: 1; white-space: pre; opacity: 1;" transform="translate(132.7,0) rotate(90,0,427)">Mar</text></g><g class="xtick"><text text-anchor="start" x="0" y="433" style="font-family: 'Open Sans', verdana, arial, sans-serif; font-size: 12px; fill: rgb(42, 63, 95); fill-opacity: 1; white-space: pre; opacity: 1;" transform="translate(154.28,0) rotate(90,0,427)">Apr</text></g><g class="xtick"><text text-anchor="start" x="0" y="433" style="font-family: 'Open Sans', verdana, arial, sans-serif; font-size: 12px; fill: rgb(42, 63, 95); fill-opacity: 1; white-space: pre; opacity: 1;" transform="translate(175.86,0) rotate(90,0,427)">May</text></g><g class="xtick"><text text-anchor="start" x="0" y="433" style="font-family: 'Open Sans', verdana, arial, sans-serif; font-size: 12px; fill: rgb(42, 63, 95); fill-opacity: 1; white-space: pre; opacity: 1;" transform="translate(197.43,0) rotate(90,0,427)">Jun</text></g><g class="xtick"><text text-anchor="start" x="0" y="433" style="font-family: 'Open Sans', verdana, arial, sans-serif; font-size: 12px; fill: rgb(42, 63, 95); fill-opacity: 1; white-space: pre; opacity: 1;" transform="translate(219.01,0) rotate(90,0,427)">Jul</text></g><g class="xtick"><text text-anchor="start" x="0" y="433" style="font-family: 'Open Sans', verdana, arial, sans-serif; font-size: 12px; fill: rgb(42, 63, 95); fill-opacity: 1; white-space: pre; opacity: 1;" transform="translate(240.94,0) rotate(90,0,427)">Aug</text></g><g class="xtick"><text text-anchor="start" x="0" y="433" style="font-family: 'Open Sans', verdana, arial, sans-serif; font-size: 12px; fill: rgb(42, 63, 95); fill-opacity: 1; white-space: pre; opacity: 1;" transform="translate(262.51,0) rotate(90,0,427)">Sep</text></g><g class="xtick"><text text-anchor="start" x="0" y="433" style="font-family: 'Open Sans', verdana, arial, sans-serif; font-size: 12px; fill: rgb(42, 63, 95); fill-opacity: 1; white-space: pre; opacity: 1;" transform="translate(284.09000000000003,0) rotate(90,0,427)">Oct</text></g><g class="xtick"><text text-anchor="start" x="0" y="433" style="font-family: 'Open Sans', verdana, arial, sans-serif; font-size: 12px; fill: rgb(42, 63, 95); fill-opacity: 1; white-space: pre; opacity: 1;" transform="translate(305.66999999999996,0) rotate(90,0,427)">Nov</text></g><g class="xtick"><text text-anchor="start" x="0" y="433" style="font-family: 'Open Sans', verdana, arial, sans-serif; font-size: 12px; fill: rgb(42, 63, 95); fill-opacity: 1; white-space: pre; opacity: 1;" transform="translate(327.24,0) rotate(90,0,427)">Dec</text></g><g class="xtick"><text text-anchor="start" x="0" y="433" style="font-family: 'Open Sans', verdana, arial, sans-serif; font-size: 12px; fill: rgb(42, 63, 95); fill-opacity: 1; white-space: pre; opacity: 1;" transform="translate(349.17,0) rotate(90,0,427)translate(0,-7.800000000000001)"><tspan class="line" dy="0em" x="0" y="433">Jan</tspan><tspan class="line" dy="1.3em" x="0" y="433">2019</tspan></text></g><g class="xtick"><text text-anchor="start" x="0" y="433" style="font-family: 'Open Sans', verdana, arial, sans-serif; font-size: 12px; fill: rgb(42, 63, 95); fill-opacity: 1; white-space: pre; opacity: 1;" transform="translate(370.04,0) rotate(90,0,427)">Feb</text></g><g class="xtick"><text text-anchor="start" x="0" y="433" style="font-family: 'Open Sans', verdana, arial, sans-serif; font-size: 12px; fill: rgb(42, 63, 95); fill-opacity: 1; white-space: pre; opacity: 1;" transform="translate(390.91,0) rotate(90,0,427)">Mar</text></g><g class="xtick"><text text-anchor="start" x="0" y="433" style="font-family: 'Open Sans', verdana, arial, sans-serif; font-size: 12px; fill: rgb(42, 63, 95); fill-opacity: 1; white-space: pre; opacity: 1;" transform="translate(412.49,0) rotate(90,0,427)">Apr</text></g><g class="xtick"><text text-anchor="start" x="0" y="433" style="font-family: 'Open Sans', verdana, arial, sans-serif; font-size: 12px; fill: rgb(42, 63, 95); fill-opacity: 1; white-space: pre; opacity: 1;" transform="translate(434.06,0) rotate(90,0,427)">May</text></g><g class="xtick"><text text-anchor="start" x="0" y="433" style="font-family: 'Open Sans', verdana, arial, sans-serif; font-size: 12px; fill: rgb(42, 63, 95); fill-opacity: 1; white-space: pre; opacity: 1;" transform="translate(455.64,0) rotate(90,0,427)">Jun</text></g><g class="xtick"><text text-anchor="start" x="0" y="433" style="font-family: 'Open Sans', verdana, arial, sans-serif; font-size: 12px; fill: rgb(42, 63, 95); fill-opacity: 1; white-space: pre; opacity: 1;" transform="translate(477.21,0) rotate(90,0,427)">Jul</text></g><g class="xtick"><text text-anchor="start" x="0" y="433" style="font-family: 'Open Sans', verdana, arial, sans-serif; font-size: 12px; fill: rgb(42, 63, 95); fill-opacity: 1; white-space: pre; opacity: 1;" transform="translate(499.14,0) rotate(90,0,427)">Aug</text></g><g class="xtick"><text text-anchor="start" x="0" y="433" style="font-family: 'Open Sans', verdana, arial, sans-serif; font-size: 12px; fill: rgb(42, 63, 95); fill-opacity: 1; white-space: pre; opacity: 1;" transform="translate(520.72,0) rotate(90,0,427)">Sep</text></g><g class="xtick"><text text-anchor="start" x="0" y="433" style="font-family: 'Open Sans', verdana, arial, sans-serif; font-size: 12px; fill: rgb(42, 63, 95); fill-opacity: 1; white-space: pre; opacity: 1;" transform="translate(542.3,0) rotate(90,0,427)">Oct</text></g><g class="xtick"><text text-anchor="start" x="0" y="433" style="font-family: 'Open Sans', verdana, arial, sans-serif; font-size: 12px; fill: rgb(42, 63, 95); fill-opacity: 1; white-space: pre; opacity: 1;" transform="translate(563.87,0) rotate(90,0,427)">Nov</text></g><g class="xtick"><text text-anchor="start" x="0" y="433" style="font-family: 'Open Sans', verdana, arial, sans-serif; font-size: 12px; fill: rgb(42, 63, 95); fill-opacity: 1; white-space: pre; opacity: 1;" transform="translate(585.1,0) rotate(90,0,427)">Dec</text></g></g><g class="yaxislayer-above"><g class="ytick"><text text-anchor="end" x="79" y="4.199999999999999" transform="translate(0,419.35)" style="font-family: 'Open Sans', verdana, arial, sans-serif; font-size: 12px; fill: rgb(42, 63, 95); fill-opacity: 1; white-space: pre; opacity: 1;">0.6</text></g><g class="ytick"><text text-anchor="end" x="79" y="4.199999999999999" style="font-family: 'Open Sans', verdana, arial, sans-serif; font-size: 12px; fill: rgb(42, 63, 95); fill-opacity: 1; white-space: pre; opacity: 1;" transform="translate(0,374.67)">0.8</text></g><g class="ytick"><text text-anchor="end" x="79" y="4.199999999999999" style="font-family: 'Open Sans', verdana, arial, sans-serif; font-size: 12px; fill: rgb(42, 63, 95); fill-opacity: 1; white-space: pre; opacity: 1;" transform="translate(0,329.98)">1</text></g><g class="ytick"><text text-anchor="end" x="79" y="4.199999999999999" style="font-family: 'Open Sans', verdana, arial, sans-serif; font-size: 12px; fill: rgb(42, 63, 95); fill-opacity: 1; white-space: pre; opacity: 1;" transform="translate(0,285.28999999999996)">1.2</text></g><g class="ytick"><text text-anchor="end" x="79" y="4.199999999999999" style="font-family: 'Open Sans', verdana, arial, sans-serif; font-size: 12px; fill: rgb(42, 63, 95); fill-opacity: 1; white-space: pre; opacity: 1;" transform="translate(0,240.6)">1.4</text></g><g class="ytick"><text text-anchor="end" x="79" y="4.199999999999999" style="font-family: 'Open Sans', verdana, arial, sans-serif; font-size: 12px; fill: rgb(42, 63, 95); fill-opacity: 1; white-space: pre; opacity: 1;" transform="translate(0,195.92000000000002)">1.6</text></g><g class="ytick"><text text-anchor="end" x="79" y="4.199999999999999" style="font-family: 'Open Sans', verdana, arial, sans-serif; font-size: 12px; fill: rgb(42, 63, 95); fill-opacity: 1; white-space: pre; opacity: 1;" transform="translate(0,151.23)">1.8</text></g><g class="ytick"><text text-anchor="end" x="79" y="4.199999999999999" style="font-family: 'Open Sans', verdana, arial, sans-serif; font-size: 12px; fill: rgb(42, 63, 95); fill-opacity: 1; white-space: pre; opacity: 1;" transform="translate(0,106.54)">2</text></g></g><g class="overaxes-above"/></g></g><g class="polarlayer"/><g class="smithlayer"/><g class="ternarylayer"/><g class="geolayer"/><g class="funnelarealayer"/><g class="pielayer"/><g class="iciclelayer"/><g class="treemaplayer"/><g class="sunburstlayer"/><g class="glimages"/><defs id="topdefs-00bc3d"><g class="clips"/><clipPath id="legend00bc3d"><rect width="83" height="143" x="0" y="0"/></clipPath></defs><g class="layer-above"><g class="imagelayer"/><g class="shapelayer"/></g><g class="infolayer"><g class="legend" pointer-events="all" transform="translate(605.3,100)"><rect class="bg" shape-rendering="crispEdges" style="stroke: rgb(68, 68, 68); stroke-opacity: 1; fill: rgb(255, 255, 255); fill-opacity: 1; stroke-width: 0px;" width="83" height="143" x="0" y="0"/><g class="scrollbox" transform="" clip-path="url(#legend00bc3d)"><text class="legendtitletext" text-anchor="start" x="2" y="18.2" style="font-family: 'Open Sans', verdana, arial, sans-serif; font-size: 14px; fill: rgb(42, 63, 95); fill-opacity: 1; white-space: pre;">ID</text><g class="groups" transform=""><g class="traces" transform="translate(0,32.7)" style="opacity: 1;"><text class="legendtext" text-anchor="start" x="40" y="4.680000000000001" style="font-family: 'Open Sans', verdana, arial, sans-serif; font-size: 12px; fill: rgb(42, 63, 95); fill-opacity: 1; white-space: pre;">GOOG</text><g class="layers" style="opacity: 1;"><g class="legendfill"/><g class="legendlines"><path class="js-line" d="M5,0h30" style="fill: none; stroke: rgb(99, 110, 250); stroke-opacity: 1; stroke-width: 2px;"/></g><g class="legendsymbols"><g class="legendpoints"/></g></g><rect class="legendtoggle" x="0" y="-9.5" width="77.5" height="19" style="fill: rgb(0, 0, 0); fill-opacity: 0;"/></g></g><g class="groups" transform=""><g class="traces" transform="translate(0,51.7)" style="opacity: 1;"><text class="legendtext" text-anchor="start" x="40" y="4.680000000000001" style="font-family: 'Open Sans', verdana, arial, sans-serif; font-size: 12px; fill: rgb(42, 63, 95); fill-opacity: 1; white-space: pre;">AAPL</text><g class="layers" style="opacity: 1;"><g class="legendfill"/><g class="legendlines"><path class="js-line" d="M5,0h30" style="fill: none; stroke: rgb(239, 85, 59); stroke-opacity: 1; stroke-width: 2px;"/></g><g class="legendsymbols"><g class="legendpoints"/></g></g><rect class="legendtoggle" x="0" y="-9.5" width="77.5" height="19" style="fill: rgb(0, 0, 0); fill-opacity: 0;"/></g></g><g class="groups" transform=""><g class="traces" transform="translate(0,70.7)" style="opacity: 1;"><text class="legendtext" text-anchor="start" x="40" y="4.680000000000001" style="font-family: 'Open Sans', verdana, arial, sans-serif; font-size: 12px; fill: rgb(42, 63, 95); fill-opacity: 1; white-space: pre;">AMZN</text><g class="layers" style="opacity: 1;"><g class="legendfill"/><g class="legendlines"><path class="js-line" d="M5,0h30" style="fill: none; stroke: rgb(0, 204, 150); stroke-opacity: 1; stroke-width: 2px;"/></g><g class="legendsymbols"><g class="legendpoints"/></g></g><rect class="legendtoggle" x="0" y="-9.5" width="77.5" height="19" style="fill: rgb(0, 0, 0); fill-opacity: 0;"/></g></g><g class="groups" transform=""><g class="traces" transform="translate(0,89.7)" style="opacity: 1;"><text class="legendtext" text-anchor="start" x="40" y="4.680000000000001" style="font-family: 'Open Sans', verdana, arial, sans-serif; font-size: 12px; fill: rgb(42, 63, 95); fill-opacity: 1; white-space: pre;">FB</text><g class="layers" style="opacity: 1;"><g class="legendfill"/><g class="legendlines"><path class="js-line" d="M5,0h30" style="fill: none; stroke: rgb(171, 99, 250); stroke-opacity: 1; stroke-width: 2px;"/></g><g class="legendsymbols"><g class="legendpoints"/></g></g><rect class="legendtoggle" x="0" y="-9.5" width="77.5" height="19" style="fill: rgb(0, 0, 0); fill-opacity: 0;"/></g></g><g class="groups" transform=""><g class="traces" transform="translate(0,108.7)" style="opacity: 1;"><text class="legendtext" text-anchor="start" x="40" y="4.680000000000001" style="font-family: 'Open Sans', verdana, arial, sans-serif; font-size: 12px; fill: rgb(42, 63, 95); fill-opacity: 1; white-space: pre;">NFLX</text><g class="layers" style="opacity: 1;"><g class="legendfill"/><g class="legendlines"><path class="js-line" d="M5,0h30" style="fill: none; stroke: rgb(255, 161, 90); stroke-opacity: 1; stroke-width: 2px;"/></g><g class="legendsymbols"><g class="legendpoints"/></g></g><rect class="legendtoggle" x="0" y="-9.5" width="77.5" height="19" style="fill: rgb(0, 0, 0); fill-opacity: 0;"/></g></g><g class="groups" transform=""><g class="traces" transform="translate(0,127.7)" style="opacity: 1;"><text class="legendtext" text-anchor="start" x="40" y="4.680000000000001" style="font-family: 'Open Sans', verdana, arial, sans-serif; font-size: 12px; fill: rgb(42, 63, 95); fill-opacity: 1; white-space: pre;">MSFT</text><g class="layers" style="opacity: 1;"><g class="legendfill"/><g class="legendlines"><path class="js-line" d="M5,0h30" style="fill: none; stroke: rgb(25, 211, 243); stroke-opacity: 1; stroke-width: 2px;"/></g><g class="legendsymbols"><g class="legendpoints"/></g></g><rect class="legendtoggle" x="0" y="-9.5" width="77.5" height="19" style="fill: rgb(0, 0, 0); fill-opacity: 0;"/></g></g></g><rect class="scrollbar" rx="20" ry="3" width="0" height="0" style="fill: rgb(128, 139, 164); fill-opacity: 1;" x="0" y="0"/></g><g class="g-gtitle"><text class="gtitle" x="35" y="50" text-anchor="start" dy="0em" style="font-family: 'Open Sans', verdana, arial, sans-serif; font-size: 17px; fill: rgb(42, 63, 95); opacity: 1; font-weight: normal; white-space: pre;">custom tick labels</text></g><g class="g-xtitle"><text class="xtitle" x="337.5" y="482.190625" text-anchor="middle" style="font-family: 'Open Sans', verdana, arial, sans-serif; font-size: 14px; fill: rgb(42, 63, 95); opacity: 1; font-weight: normal; white-space: pre;">date</text></g><g class="g-ytitle"><text class="ytitle" transform="rotate(-90,35.075,260)" x="35.075" y="260" text-anchor="middle" style="font-family: 'Open Sans', verdana, arial, sans-serif; font-size: 14px; fill: rgb(42, 63, 95); opacity: 1; font-weight: normal; white-space: pre;">Value</text></g></g></svg>